%TF.GenerationSoftware,KiCad,Pcbnew,10.0.6*%
%TF.CreationDate,2026-09-10T21:09:54-04:00*%
%TF.ProjectId,Alfred,416c6672-6564-42e6-9b69-6361645f7063,C*%
%TF.SameCoordinates,Original*%
%TF.FileFunction,Soldermask,Top*%
%TF.FilePolarity,Negative*%
%FSLAX46Y46*%
G04 Gerber Fmt 4.6, Leading zero omitted, Abs format (unit mm)*
G04 Created by KiCad (PCBNEW 10.0.6) date 2026-09-10 21:09:54*
%MOMM*%
%LPD*%
G01*
G04 APERTURE LIST*
G04 Aperture macros list*
%AMRoundRect*
0 Rectangle with rounded corners*
0 $1 Rounding radius*
0 $2 $3 $4 $5 $6 $7 $8 $9 X,Y pos of 4 corners*
0 Add a 4 corners polygon primitive as box body*
4,1,4,$2,$3,$4,$5,$6,$7,$8,$9,$2,$3,0*
0 Add four circle primitives for the rounded corners*
1,1,$1+$1,$2,$3*
1,1,$1+$1,$4,$5*
1,1,$1+$1,$6,$7*
1,1,$1+$1,$8,$9*
0 Add four rect primitives between the rounded corners*
20,1,$1+$1,$2,$3,$4,$5,0*
20,1,$1+$1,$4,$5,$6,$7,0*
20,1,$1+$1,$6,$7,$8,$9,0*
20,1,$1+$1,$8,$9,$2,$3,0*%
%AMFreePoly0*
4,1,64,0.235856,1.440014,0.383010,1.379061,0.515445,1.290571,0.628071,1.177945,0.716561,1.045510,0.777514,0.898356,0.808588,0.742139,0.808588,0.582861,0.777514,0.426644,0.716561,0.279490,0.628071,0.147055,0.515445,0.034429,0.383010,-0.054061,0.235856,-0.115014,0.079639,-0.146088,0.031751,-0.146088,0.029264,-0.147118,-0.029264,-0.147118,-0.031751,-0.146088,-0.079639,-0.146088,
-0.235856,-0.115014,-0.383010,-0.054061,-0.515445,0.034429,-0.628071,0.147055,-0.716561,0.279490,-0.777514,0.426644,-0.808588,0.582861,-0.808588,0.729972,-0.512500,0.729972,-0.512500,0.595028,-0.477574,0.464683,-0.410102,0.347818,-0.314682,0.252398,-0.197817,0.184926,-0.067472,0.150000,0.067472,0.150000,0.197817,0.184926,0.314682,0.252398,0.410102,0.347818,0.477574,0.464683,
0.512500,0.595028,0.512500,0.729972,0.477574,0.860317,0.410102,0.977182,0.314682,1.072602,0.197817,1.140074,0.067472,1.175000,-0.067472,1.175000,-0.197817,1.140074,-0.314682,1.072602,-0.410102,0.977182,-0.477574,0.860317,-0.512500,0.729972,-0.808588,0.729972,-0.808588,0.742139,-0.777514,0.898356,-0.716561,1.045510,-0.628071,1.177945,-0.515445,1.290571,-0.383010,1.379061,
-0.235856,1.440014,-0.079639,1.471088,0.079639,1.471088,0.235856,1.440014,0.235856,1.440014,$1*%
G04 Aperture macros list end*
%ADD10C,2.700000*%
%ADD11C,1.500000*%
%ADD12RoundRect,0.250000X0.450000X-0.262500X0.450000X0.262500X-0.450000X0.262500X-0.450000X-0.262500X0*%
%ADD13C,0.650000*%
%ADD14RoundRect,0.150000X0.150000X0.425000X-0.150000X0.425000X-0.150000X-0.425000X0.150000X-0.425000X0*%
%ADD15RoundRect,0.075000X0.075000X0.500000X-0.075000X0.500000X-0.075000X-0.500000X0.075000X-0.500000X0*%
%ADD16O,1.000000X2.100000*%
%ADD17O,1.000000X1.800000*%
%ADD18R,1.700000X1.700000*%
%ADD19C,1.700000*%
%ADD20RoundRect,0.250000X-0.262500X-0.450000X0.262500X-0.450000X0.262500X0.450000X-0.262500X0.450000X0*%
%ADD21C,3.200000*%
%ADD22RoundRect,0.250000X-0.250000X-0.475000X0.250000X-0.475000X0.250000X0.475000X-0.250000X0.475000X0*%
%ADD23RoundRect,0.250000X0.650000X-0.325000X0.650000X0.325000X-0.650000X0.325000X-0.650000X-0.325000X0*%
%ADD24RoundRect,0.235000X2.315000X-0.940000X2.315000X0.940000X-2.315000X0.940000X-2.315000X-0.940000X0*%
%ADD25RoundRect,0.250000X0.475000X-0.250000X0.475000X0.250000X-0.475000X0.250000X-0.475000X-0.250000X0*%
%ADD26RoundRect,0.150000X-0.512500X-0.150000X0.512500X-0.150000X0.512500X0.150000X-0.512500X0.150000X0*%
%ADD27C,2.400000*%
%ADD28RoundRect,0.150000X0.725000X0.150000X-0.725000X0.150000X-0.725000X-0.150000X0.725000X-0.150000X0*%
%ADD29RoundRect,0.250000X-0.550000X-0.550000X0.550000X-0.550000X0.550000X0.550000X-0.550000X0.550000X0*%
%ADD30C,1.600000*%
%ADD31RoundRect,0.150000X-0.587500X-0.150000X0.587500X-0.150000X0.587500X0.150000X-0.587500X0.150000X0*%
%ADD32RoundRect,0.062500X-0.350000X-0.062500X0.350000X-0.062500X0.350000X0.062500X-0.350000X0.062500X0*%
%ADD33RoundRect,0.062500X-0.062500X-0.350000X0.062500X-0.350000X0.062500X0.350000X-0.062500X0.350000X0*%
%ADD34R,1.230000X1.230000*%
%ADD35RoundRect,0.250000X-0.325000X-0.650000X0.325000X-0.650000X0.325000X0.650000X-0.325000X0.650000X0*%
%ADD36C,2.000000*%
%ADD37C,0.500000*%
%ADD38R,0.600000X0.522000*%
%ADD39FreePoly0,90.000000*%
%ADD40RoundRect,0.250000X0.250000X0.475000X-0.250000X0.475000X-0.250000X-0.475000X0.250000X-0.475000X0*%
%ADD41RoundRect,0.250000X-0.750000X-0.750000X0.750000X-0.750000X0.750000X0.750000X-0.750000X0.750000X0*%
%ADD42RoundRect,0.225000X-0.225000X-0.375000X0.225000X-0.375000X0.225000X0.375000X-0.225000X0.375000X0*%
%ADD43RoundRect,0.030000X-0.270000X-0.120000X0.270000X-0.120000X0.270000X0.120000X-0.270000X0.120000X0*%
%ADD44RoundRect,0.025000X-0.100000X-0.300000X0.100000X-0.300000X0.100000X0.300000X-0.100000X0.300000X0*%
%ADD45RoundRect,0.025000X-0.275000X-0.100000X0.275000X-0.100000X0.275000X0.100000X-0.275000X0.100000X0*%
%ADD46RoundRect,0.030000X-0.120000X-1.170000X0.120000X-1.170000X0.120000X1.170000X-0.120000X1.170000X0*%
%ADD47RoundRect,0.250001X-0.799999X-0.799999X0.799999X-0.799999X0.799999X0.799999X-0.799999X0.799999X0*%
%ADD48C,2.100000*%
%ADD49RoundRect,0.250000X0.650000X-1.000000X0.650000X1.000000X-0.650000X1.000000X-0.650000X-1.000000X0*%
%ADD50RoundRect,0.062500X0.337500X0.062500X-0.337500X0.062500X-0.337500X-0.062500X0.337500X-0.062500X0*%
%ADD51RoundRect,0.062500X0.062500X0.337500X-0.062500X0.337500X-0.062500X-0.337500X0.062500X-0.337500X0*%
%ADD52R,2.750000X2.750000*%
%ADD53R,1.800000X1.800000*%
%ADD54C,1.800000*%
G04 APERTURE END LIST*
D10*
%TO.C,H5*%
X133500000Y-53500000D03*
%TD*%
D11*
%TO.C,TP105*%
X115000000Y-69000000D03*
%TD*%
D12*
%TO.C,R404*%
X74000000Y-102912500D03*
X74000000Y-101087500D03*
%TD*%
D11*
%TO.C,TP202*%
X124000000Y-71000000D03*
%TD*%
D13*
%TO.C,J1*%
X82890000Y-55805000D03*
X77110000Y-55805000D03*
D14*
X83200000Y-56880000D03*
X82400000Y-56880000D03*
D15*
X81250000Y-56880000D03*
X80250000Y-56880000D03*
X79750000Y-56880000D03*
X78750000Y-56880000D03*
D14*
X77600000Y-56880000D03*
X76800000Y-56880000D03*
X76800000Y-56880000D03*
X77600000Y-56880000D03*
D15*
X78250000Y-56880000D03*
X79250000Y-56880000D03*
X80750000Y-56880000D03*
X81750000Y-56880000D03*
D14*
X82400000Y-56880000D03*
X83200000Y-56880000D03*
D16*
X84320000Y-56305000D03*
D17*
X84320000Y-52125000D03*
D16*
X75680000Y-56305000D03*
D17*
X75680000Y-52125000D03*
%TD*%
D18*
%TO.C,J2*%
X134770000Y-58370000D03*
D19*
X132230000Y-58370000D03*
X134770000Y-60910000D03*
X132230000Y-60910000D03*
X134770000Y-63450000D03*
X132230000Y-63450000D03*
X134770000Y-65990000D03*
X132230000Y-65990000D03*
X134770000Y-68530000D03*
X132230000Y-68530000D03*
X134770000Y-71070000D03*
X132230000Y-71070000D03*
X134770000Y-73610000D03*
X132230000Y-73610000D03*
X134770000Y-76150000D03*
X132230000Y-76150000D03*
X134770000Y-78690000D03*
X132230000Y-78690000D03*
X134770000Y-81230000D03*
X132230000Y-81230000D03*
X134770000Y-83770000D03*
X132230000Y-83770000D03*
X134770000Y-86310000D03*
X132230000Y-86310000D03*
X134770000Y-88850000D03*
X132230000Y-88850000D03*
X134770000Y-91390000D03*
X132230000Y-91390000D03*
X134770000Y-93930000D03*
X132230000Y-93930000D03*
X134770000Y-96470000D03*
X132230000Y-96470000D03*
X134770000Y-99010000D03*
X132230000Y-99010000D03*
X134770000Y-101550000D03*
X132230000Y-101550000D03*
X134770000Y-104090000D03*
X132230000Y-104090000D03*
X134770000Y-106630000D03*
X132230000Y-106630000D03*
%TD*%
D20*
%TO.C,R103*%
X100087500Y-69000000D03*
X101912500Y-69000000D03*
%TD*%
D21*
%TO.C,H3*%
X54000000Y-54000000D03*
%TD*%
D20*
%TO.C,R114*%
X117087500Y-76000000D03*
X118912500Y-76000000D03*
%TD*%
%TO.C,R201*%
X127087500Y-71000000D03*
X128912500Y-71000000D03*
%TD*%
D22*
%TO.C,C109*%
X100050000Y-85000000D03*
X101950000Y-85000000D03*
%TD*%
D20*
%TO.C,R410*%
X157087500Y-121000000D03*
X158912500Y-121000000D03*
%TD*%
D23*
%TO.C,C108*%
X74000000Y-84475000D03*
X74000000Y-81525000D03*
%TD*%
D11*
%TO.C,TP1*%
X88000000Y-54000000D03*
%TD*%
D12*
%TO.C,R405*%
X78000000Y-100912500D03*
X78000000Y-99087500D03*
%TD*%
%TO.C,R301*%
X67000000Y-128912500D03*
X67000000Y-127087500D03*
%TD*%
D24*
%TO.C,L1*%
X104000000Y-107575000D03*
X104000000Y-103425000D03*
%TD*%
D12*
%TO.C,R101*%
X111000000Y-66912500D03*
X111000000Y-65087500D03*
%TD*%
D25*
%TO.C,C1*%
X74000000Y-60950000D03*
X74000000Y-59050000D03*
%TD*%
D11*
%TO.C,TP205*%
X128000000Y-67000000D03*
%TD*%
D12*
%TO.C,R4*%
X68000000Y-63912500D03*
X68000000Y-62087500D03*
%TD*%
D11*
%TO.C,TP4*%
X66000000Y-60000000D03*
%TD*%
D20*
%TO.C,R115*%
X122087500Y-76000000D03*
X123912500Y-76000000D03*
%TD*%
%TO.C,R105*%
X77087500Y-78000000D03*
X78912500Y-78000000D03*
%TD*%
%TO.C,R406*%
X66087500Y-96000000D03*
X67912500Y-96000000D03*
%TD*%
D22*
%TO.C,C110*%
X92050000Y-82000000D03*
X93950000Y-82000000D03*
%TD*%
%TO.C,C301*%
X64050000Y-132000000D03*
X65950000Y-132000000D03*
%TD*%
D20*
%TO.C,R104*%
X100087500Y-72000000D03*
X101912500Y-72000000D03*
%TD*%
D10*
%TO.C,H7*%
X133500000Y-111500000D03*
%TD*%
%TO.C,H6*%
X156500000Y-53500000D03*
%TD*%
D20*
%TO.C,R409*%
X151087500Y-121000000D03*
X152912500Y-121000000D03*
%TD*%
%TO.C,R110*%
X88087500Y-89000000D03*
X89912500Y-89000000D03*
%TD*%
D18*
%TO.C,J4*%
X65000000Y-91000000D03*
D19*
X67540000Y-91000000D03*
X70080000Y-91000000D03*
%TD*%
D26*
%TO.C,U8*%
X74862500Y-89050000D03*
X74862500Y-90000000D03*
X74862500Y-90950000D03*
X77137500Y-90950000D03*
X77137500Y-89050000D03*
%TD*%
D27*
%TO.C,R408*%
X64000000Y-109000000D03*
X94480000Y-109000000D03*
%TD*%
D28*
%TO.C,Q1*%
X93575000Y-59905000D03*
X93575000Y-58635000D03*
X93575000Y-57365000D03*
X93575000Y-56095000D03*
X88425000Y-56095000D03*
X88425000Y-57365000D03*
X88425000Y-58635000D03*
X88425000Y-59905000D03*
%TD*%
D20*
%TO.C,R106*%
X77087500Y-81000000D03*
X78912500Y-81000000D03*
%TD*%
D25*
%TO.C,C2*%
X85000000Y-64950000D03*
X85000000Y-63050000D03*
%TD*%
D22*
%TO.C,C401*%
X75050000Y-87000000D03*
X76950000Y-87000000D03*
%TD*%
D21*
%TO.C,H4*%
X166000000Y-54000000D03*
%TD*%
D20*
%TO.C,R107*%
X96087500Y-75000000D03*
X97912500Y-75000000D03*
%TD*%
D12*
%TO.C,R403*%
X73000000Y-90912500D03*
X73000000Y-89087500D03*
%TD*%
D22*
%TO.C,C303*%
X108050000Y-100000000D03*
X109950000Y-100000000D03*
%TD*%
D12*
%TO.C,R401*%
X81000000Y-90912500D03*
X81000000Y-89087500D03*
%TD*%
D29*
%TO.C,C106*%
X65000000Y-80000000D03*
D30*
X68500000Y-80000000D03*
%TD*%
D31*
%TO.C,U9*%
X71062500Y-97050000D03*
X71062500Y-98950000D03*
X72937500Y-98000000D03*
%TD*%
D20*
%TO.C,R111*%
X92087500Y-90000000D03*
X93912500Y-90000000D03*
%TD*%
D26*
%TO.C,U5*%
X91862500Y-84050000D03*
X91862500Y-85000000D03*
X91862500Y-85950000D03*
X94137500Y-85950000D03*
X94137500Y-84050000D03*
%TD*%
D22*
%TO.C,C3*%
X85050000Y-68000000D03*
X86950000Y-68000000D03*
%TD*%
D32*
%TO.C,U7*%
X106562500Y-95750000D03*
X106562500Y-96250000D03*
X106562500Y-96750000D03*
X106562500Y-97250000D03*
D33*
X107250000Y-97937500D03*
X107750000Y-97937500D03*
X108250000Y-97937500D03*
X108750000Y-97937500D03*
D32*
X109437500Y-97250000D03*
X109437500Y-96750000D03*
X109437500Y-96250000D03*
X109437500Y-95750000D03*
D33*
X108750000Y-95062500D03*
X108250000Y-95062500D03*
X107750000Y-95062500D03*
X107250000Y-95062500D03*
D34*
X108000000Y-96500000D03*
%TD*%
D11*
%TO.C,TP403*%
X164000000Y-121000000D03*
%TD*%
D35*
%TO.C,C304*%
X103525000Y-100000000D03*
X106475000Y-100000000D03*
%TD*%
D24*
%TO.C,L2*%
X112000000Y-107575000D03*
X112000000Y-103425000D03*
%TD*%
D28*
%TO.C,Q2*%
X102575000Y-59905000D03*
X102575000Y-58635000D03*
X102575000Y-57365000D03*
X102575000Y-56095000D03*
X97425000Y-56095000D03*
X97425000Y-57365000D03*
X97425000Y-58635000D03*
X97425000Y-59905000D03*
%TD*%
D12*
%TO.C,R302*%
X60000000Y-130912500D03*
X60000000Y-129087500D03*
%TD*%
D36*
%TO.C,SW1*%
X155000000Y-132000000D03*
X161500000Y-132000000D03*
X155000000Y-136500000D03*
X161500000Y-136500000D03*
%TD*%
D37*
%TO.C,U6*%
X60000000Y-136000000D03*
D38*
X59100000Y-133926000D03*
X59100000Y-134748000D03*
D39*
X60662500Y-136000000D03*
D38*
X60900000Y-134748000D03*
X60900000Y-133926000D03*
X60000000Y-133926000D03*
%TD*%
D20*
%TO.C,R2*%
X93087500Y-65000000D03*
X94912500Y-65000000D03*
%TD*%
D26*
%TO.C,U4*%
X99862500Y-80050000D03*
X99862500Y-81000000D03*
X99862500Y-81950000D03*
X102137500Y-81950000D03*
X102137500Y-81000000D03*
X102137500Y-80050000D03*
%TD*%
D40*
%TO.C,C104*%
X82950000Y-74000000D03*
X81050000Y-74000000D03*
%TD*%
D11*
%TO.C,TP106*%
X110000000Y-56000000D03*
%TD*%
D41*
%TO.C,C105*%
X118000000Y-64000000D03*
D36*
X123000000Y-64000000D03*
%TD*%
D11*
%TO.C,TP302*%
X119000000Y-92000000D03*
%TD*%
D20*
%TO.C,R3*%
X78087500Y-71000000D03*
X79912500Y-71000000D03*
%TD*%
D11*
%TO.C,TP201*%
X128000000Y-63000000D03*
%TD*%
D12*
%TO.C,R407*%
X63000000Y-100912500D03*
X63000000Y-99087500D03*
%TD*%
D42*
%TO.C,D1*%
X97350000Y-66000000D03*
X100650000Y-66000000D03*
%TD*%
D20*
%TO.C,R305*%
X101087500Y-92000000D03*
X102912500Y-92000000D03*
%TD*%
D23*
%TO.C,C107*%
X114000000Y-61475000D03*
X114000000Y-58525000D03*
%TD*%
D12*
%TO.C,R411*%
X148000000Y-131912500D03*
X148000000Y-130087500D03*
%TD*%
D20*
%TO.C,R1*%
X87087500Y-65000000D03*
X88912500Y-65000000D03*
%TD*%
D25*
%TO.C,C4*%
X76000000Y-65950000D03*
X76000000Y-64050000D03*
%TD*%
D11*
%TO.C,TP104*%
X92000000Y-76000000D03*
%TD*%
%TO.C,TP203*%
X124000000Y-102000000D03*
%TD*%
%TO.C,TP102*%
X64000000Y-74000000D03*
%TD*%
D22*
%TO.C,C6*%
X77050000Y-74000000D03*
X78950000Y-74000000D03*
%TD*%
D11*
%TO.C,TP404*%
X150000000Y-124000000D03*
%TD*%
D21*
%TO.C,H1*%
X54000000Y-140000000D03*
%TD*%
D20*
%TO.C,R402*%
X76087500Y-94000000D03*
X77912500Y-94000000D03*
%TD*%
D42*
%TO.C,D101*%
X126350000Y-76000000D03*
X129650000Y-76000000D03*
%TD*%
D11*
%TO.C,TP6*%
X72000000Y-68000000D03*
%TD*%
D25*
%TO.C,C302*%
X64000000Y-135950000D03*
X64000000Y-134050000D03*
%TD*%
D11*
%TO.C,TP303*%
X119000000Y-106000000D03*
%TD*%
D43*
%TO.C,U2*%
X106100000Y-66300000D03*
D44*
X106275000Y-66125000D03*
D45*
X106100000Y-66775000D03*
X106100000Y-67225000D03*
D43*
X106100000Y-67700000D03*
D44*
X106275000Y-67875000D03*
D46*
X106750000Y-67000000D03*
X107250000Y-67000000D03*
D44*
X107725000Y-67875000D03*
D43*
X107900000Y-67700000D03*
D45*
X107900000Y-67225000D03*
X107900000Y-66775000D03*
D44*
X107725000Y-66125000D03*
D43*
X107900000Y-66300000D03*
%TD*%
D22*
%TO.C,C5*%
X82050000Y-61000000D03*
X83950000Y-61000000D03*
%TD*%
%TO.C,C403*%
X155050000Y-129000000D03*
X156950000Y-129000000D03*
%TD*%
D43*
%TO.C,U3*%
X83100000Y-78300000D03*
D44*
X83275000Y-78125000D03*
D45*
X83100000Y-78775000D03*
X83100000Y-79225000D03*
D43*
X83100000Y-79700000D03*
D44*
X83275000Y-79875000D03*
D46*
X83750000Y-79000000D03*
X84250000Y-79000000D03*
D44*
X84725000Y-79875000D03*
D43*
X84900000Y-79700000D03*
D45*
X84900000Y-79225000D03*
X84900000Y-78775000D03*
D44*
X84725000Y-78125000D03*
D43*
X84900000Y-78300000D03*
%TD*%
D40*
%TO.C,C103*%
X105950000Y-62000000D03*
X104050000Y-62000000D03*
%TD*%
D11*
%TO.C,TP301*%
X70000000Y-132000000D03*
%TD*%
D20*
%TO.C,R109*%
X104087500Y-76000000D03*
X105912500Y-76000000D03*
%TD*%
D21*
%TO.C,H2*%
X166000000Y-140000000D03*
%TD*%
D47*
%TO.C,J3*%
X107000000Y-116000000D03*
D48*
X109540000Y-116000000D03*
%TD*%
D12*
%TO.C,R303*%
X57000000Y-128912500D03*
X57000000Y-127087500D03*
%TD*%
D31*
%TO.C,Q3*%
X66062500Y-99050000D03*
X66062500Y-100950000D03*
X67937500Y-100000000D03*
%TD*%
D12*
%TO.C,R306*%
X107000000Y-91912500D03*
X107000000Y-90087500D03*
%TD*%
D25*
%TO.C,C308*%
X117000000Y-112950000D03*
X117000000Y-111050000D03*
%TD*%
D49*
%TO.C,D2*%
X70000000Y-57000000D03*
X70000000Y-53000000D03*
%TD*%
D29*
%TO.C,C305*%
X119000000Y-98000000D03*
D30*
X121000000Y-98000000D03*
%TD*%
D20*
%TO.C,R108*%
X96087500Y-78000000D03*
X97912500Y-78000000D03*
%TD*%
D11*
%TO.C,TP401*%
X62000000Y-95000000D03*
%TD*%
D12*
%TO.C,R304*%
X102000000Y-96912500D03*
X102000000Y-95087500D03*
%TD*%
D26*
%TO.C,U10*%
X154862500Y-124050000D03*
X154862500Y-125000000D03*
X154862500Y-125950000D03*
X157137500Y-125950000D03*
X157137500Y-124050000D03*
%TD*%
D20*
%TO.C,R202*%
X127087500Y-102000000D03*
X128912500Y-102000000D03*
%TD*%
D25*
%TO.C,C307*%
X99000000Y-112950000D03*
X99000000Y-111050000D03*
%TD*%
D11*
%TO.C,TP103*%
X108000000Y-79000000D03*
%TD*%
%TO.C,TP3*%
X75000000Y-72000000D03*
%TD*%
D25*
%TO.C,C111*%
X106000000Y-83950000D03*
X106000000Y-82050000D03*
%TD*%
D10*
%TO.C,H8*%
X156500000Y-111500000D03*
%TD*%
D11*
%TO.C,TP101*%
X125000000Y-55000000D03*
%TD*%
D12*
%TO.C,R203*%
X140000000Y-111912500D03*
X140000000Y-110087500D03*
%TD*%
D22*
%TO.C,C306*%
X107050000Y-110500000D03*
X108950000Y-110500000D03*
%TD*%
D11*
%TO.C,TP5*%
X85000000Y-71000000D03*
%TD*%
D25*
%TO.C,C102*%
X88000000Y-82950000D03*
X88000000Y-81050000D03*
%TD*%
%TO.C,C101*%
X111000000Y-70950000D03*
X111000000Y-69050000D03*
%TD*%
D11*
%TO.C,TP204*%
X138000000Y-104000000D03*
%TD*%
D50*
%TO.C,U1*%
X81975000Y-66250000D03*
X81975000Y-65750000D03*
X81975000Y-65250000D03*
X81975000Y-64750000D03*
X81975000Y-64250000D03*
X81975000Y-63750000D03*
D51*
X81250000Y-63025000D03*
X80750000Y-63025000D03*
X80250000Y-63025000D03*
X79750000Y-63025000D03*
X79250000Y-63025000D03*
X78750000Y-63025000D03*
D50*
X78025000Y-63750000D03*
X78025000Y-64250000D03*
X78025000Y-64750000D03*
X78025000Y-65250000D03*
X78025000Y-65750000D03*
X78025000Y-66250000D03*
D51*
X78750000Y-66975000D03*
X79250000Y-66975000D03*
X79750000Y-66975000D03*
X80250000Y-66975000D03*
X80750000Y-66975000D03*
X81250000Y-66975000D03*
D52*
X80000000Y-65000000D03*
%TD*%
D20*
%TO.C,R112*%
X113087500Y-76000000D03*
X114912500Y-76000000D03*
%TD*%
D11*
%TO.C,TP402*%
X85000000Y-86000000D03*
%TD*%
D25*
%TO.C,C402*%
X160000000Y-124950000D03*
X160000000Y-123050000D03*
%TD*%
D20*
%TO.C,R113*%
X113087500Y-73000000D03*
X114912500Y-73000000D03*
%TD*%
D12*
%TO.C,R102*%
X88000000Y-78912500D03*
X88000000Y-77087500D03*
%TD*%
D11*
%TO.C,TP2*%
X105000000Y-56000000D03*
%TD*%
D53*
%TO.C,D3*%
X149500000Y-136000000D03*
D54*
X152040000Y-136000000D03*
%TD*%
M02*
