M48
; DRILL file KiCad 10.0.6 date 2026-09-10T21:09:55
; FORMAT={-:-/ absolute / metric / decimal}
; #@! TF.CreationDate,2026-09-10T21:09:55-04:00
; #@! TF.GenerationSoftware,Kicad,Pcbnew,10.0.6
; #@! TF.FileFunction,Plated,1,4,PTH
FMAT,2
METRIC
; #@! TA.AperFunction,Plated,PTH,ViaDrill
T1C0.300
; #@! TA.AperFunction,Plated,PTH,ComponentDrill
T2C0.600
; #@! TA.AperFunction,Plated,PTH,ComponentDrill
T3C0.800
; #@! TA.AperFunction,Plated,PTH,ComponentDrill
T4C0.900
; #@! TA.AperFunction,Plated,PTH,ComponentDrill
T5C1.000
; #@! TA.AperFunction,Plated,PTH,ComponentDrill
T6C1.100
; #@! TA.AperFunction,Plated,PTH,ComponentDrill
T7C1.200
%
G90
G05
T1
X57.0Y-126.237
X58.286Y-134.503
X61.481Y-136.877
X64.0Y-133.2
X65.2Y-74.0
X66.8Y-132.0
X66.938Y-96.0
X67.2Y-60.0
X67.856Y-128.057
X68.0Y-61.237
X71.262Y-52.19
X73.397Y-98.715
X74.0Y-58.2
X74.0Y-63.534
X74.0Y-80.525
X74.0Y-85.475
X74.088Y-87.105
X75.862Y-90.95
X76.0Y-63.2
X76.586Y-57.857
X77.099Y-70.84
X77.2Y-58.68
X77.426Y-72.487
X77.681Y-63.172
X77.736Y-136.744
X77.8Y-87.0
X77.9Y-66.981
X78.0Y-58.68
X78.0Y-98.237
X78.328Y-62.268
X78.663Y-69.705
X78.796Y-58.548
X79.75Y-62.155
X79.762Y-81.0
X79.8Y-74.0
X80.0Y-65.0
X80.353Y-61.651
X80.578Y-69.931
X81.0Y-88.237
X81.084Y-60.348
X82.0Y-58.68
X82.651Y-77.676
X82.693Y-63.295
X82.75Y-74.7
X82.75Y-75.5
X82.75Y-76.3
X82.77Y-66.052
X82.8Y-58.68
X83.304Y-80.652
X83.414Y-57.857
X83.55Y-74.7
X83.55Y-75.5
X83.55Y-76.3
X83.598Y-66.975
X84.142Y-85.142
X84.45Y-81.7
X84.45Y-82.5
X84.45Y-83.3
X84.8Y-61.0
X85.0Y-62.2
X85.25Y-81.7
X85.25Y-82.5
X85.25Y-83.3
X86.1Y-68.0
X86.775Y-54.281
X86.925Y-56.095
X86.925Y-57.365
X86.925Y-58.635
X86.925Y-59.905
X88.0Y-77.938
X88.0Y-80.2
X89.062Y-89.0
X90.793Y-84.517
X91.551Y-86.741
X94.762Y-90.0
X94.8Y-82.0
X95.075Y-57.365
X95.075Y-58.635
X95.075Y-59.905
X95.8Y-76.3
X95.925Y-56.095
X95.925Y-57.365
X95.925Y-58.635
X95.925Y-59.905
X98.606Y-79.894
X98.762Y-78.0
X98.862Y-81.0
X99.0Y-110.2
X101.703Y-75.006
X102.79Y-72.479
X102.8Y-85.0
X103.2Y-62.0
X104.063Y-95.087
X104.075Y-57.365
X104.075Y-58.635
X104.075Y-59.905
X104.553Y-92.0
X104.818Y-98.083
X105.0Y-66.1
X105.5Y-105.934
X105.506Y-97.25
X105.75Y-62.7
X105.75Y-63.5
X105.75Y-64.3
X106.0Y-81.2
X106.138Y-94.956
X106.521Y-89.21
X106.55Y-62.7
X106.55Y-63.5
X106.55Y-64.3
X106.558Y-80.05
X107.224Y-94.188
X107.285Y-101.262
X107.45Y-69.7
X107.45Y-70.5
X107.45Y-71.3
X108.0Y-96.5
X108.25Y-69.7
X108.25Y-70.5
X108.25Y-71.3
X109.732Y-97.852
X110.002Y-76.606
X110.303Y-96.75
X110.62Y-96.044
X110.8Y-100.0
X111.0Y-64.237
X111.0Y-68.2
X111.2Y-56.0
X111.572Y-105.935
X114.0Y-57.525
X117.0Y-110.2
X118.0Y-76.9
X120.2Y-76.0
X120.2Y-92.0
X120.2Y-106.0
X122.696Y-71.0
X123.0Y-76.9
X125.2Y-76.0
X126.2Y-55.0
X127.46Y-79.0
X127.6Y-76.0
X128.085Y-65.803
X130.8Y-76.0
X140.132Y-110.9
X142.252Y-130.853
X149.942Y-122.679
X151.2Y-124.0
X154.365Y-126.639
X156.0Y-126.072
X156.1Y-129.0
X160.0Y-123.9
X160.405Y-121.773
T3
X65.0Y-80.0
X68.5Y-80.0
X119.0Y-98.0
X121.0Y-98.0
T4
X149.5Y-136.0
X152.04Y-136.0
T5
X65.0Y-91.0
X67.54Y-91.0
X70.08Y-91.0
X118.0Y-64.0
X123.0Y-64.0
X132.23Y-58.37
X132.23Y-60.91
X132.23Y-63.45
X132.23Y-65.99
X132.23Y-68.53
X132.23Y-71.07
X132.23Y-73.61
X132.23Y-76.15
X132.23Y-78.69
X132.23Y-81.23
X132.23Y-83.77
X132.23Y-86.31
X132.23Y-88.85
X132.23Y-91.39
X132.23Y-93.93
X132.23Y-96.47
X132.23Y-99.01
X132.23Y-101.55
X132.23Y-104.09
X132.23Y-106.63
X134.77Y-58.37
X134.77Y-60.91
X134.77Y-63.45
X134.77Y-65.99
X134.77Y-68.53
X134.77Y-71.07
X134.77Y-73.61
X134.77Y-76.15
X134.77Y-78.69
X134.77Y-81.23
X134.77Y-83.77
X134.77Y-86.31
X134.77Y-88.85
X134.77Y-91.39
X134.77Y-93.93
X134.77Y-96.47
X134.77Y-99.01
X134.77Y-101.55
X134.77Y-104.09
X134.77Y-106.63
T6
X107.0Y-116.0
X109.54Y-116.0
X155.0Y-132.0
X155.0Y-136.5
X161.5Y-132.0
X161.5Y-136.5
T7
X64.0Y-109.0
X94.48Y-109.0
T2
G00X75.68Y-52.525
M15
G01X75.68Y-51.725
M16
G05
G00X75.68Y-56.855
M15
G01X75.68Y-55.755
M16
G05
G00X84.32Y-52.525
M15
G01X84.32Y-51.725
M16
G05
G00X84.32Y-56.855
M15
G01X84.32Y-55.755
M16
G05
M30
