0
SECTION
2
HEADER
9
$INSUNITS
70
4
0
ENDSEC
0
SECTION
2
ENTITIES
0
LINE
8
OUTLINE
10
0
20
0
30
0
11
120
21
0
31
0
0
LINE
8
OUTLINE
10
120
20
0
30
0
11
120
21
94
31
0
0
LINE
8
OUTLINE
10
120
20
94
30
0
11
0
21
94
31
0
0
LINE
8
OUTLINE
10
0
20
94
30
0
11
0
21
0
31
0
0
CIRCLE
8
DRILL
10
4
20
4
30
0
40
1.6
0
CIRCLE
8
DRILL
10
116
20
4
30
0
40
1.6
0
CIRCLE
8
DRILL
10
4
20
90
30
0
40
1.6
0
CIRCLE
8
DRILL
10
116
20
90
30
0
40
1.6
0
CIRCLE
8
DRILL
10
83.5
20
90.5
30
0
40
1.35
0
CIRCLE
8
DRILL
10
106.5
20
90.5
30
0
40
1.35
0
CIRCLE
8
DRILL
10
83.5
20
32.5
30
0
40
1.35
0
CIRCLE
8
DRILL
10
106.5
20
32.5
30
0
40
1.35
0
ENDSEC
0
EOF
