%TF.GenerationSoftware,KiCad,Pcbnew,10.0.6*%
%TF.CreationDate,2026-09-12T17:35:01-04:00*%
%TF.ProjectId,Alfred,416c6672-6564-42e6-9b69-6361645f7063,D*%
%TF.SameCoordinates,Original*%
%TF.FileFunction,Copper,L1,Top*%
%TF.FilePolarity,Positive*%
%FSLAX46Y46*%
G04 Gerber Fmt 4.6, Leading zero omitted, Abs format (unit mm)*
G04 Created by KiCad (PCBNEW 10.0.6) date 2026-09-12 17:35:01*
%MOMM*%
%LPD*%
G01*
G04 APERTURE LIST*
G04 Aperture macros list*
%AMRoundRect*
0 Rectangle with rounded corners*
0 $1 Rounding radius*
0 $2 $3 $4 $5 $6 $7 $8 $9 X,Y pos of 4 corners*
0 Add a 4 corners polygon primitive as box body*
4,1,4,$2,$3,$4,$5,$6,$7,$8,$9,$2,$3,0*
0 Add four circle primitives for the rounded corners*
1,1,$1+$1,$2,$3*
1,1,$1+$1,$4,$5*
1,1,$1+$1,$6,$7*
1,1,$1+$1,$8,$9*
0 Add four rect primitives between the rounded corners*
20,1,$1+$1,$2,$3,$4,$5,0*
20,1,$1+$1,$4,$5,$6,$7,0*
20,1,$1+$1,$6,$7,$8,$9,0*
20,1,$1+$1,$8,$9,$2,$3,0*%
%AMFreePoly0*
4,1,64,0.235856,1.440014,0.383010,1.379061,0.515445,1.290571,0.628071,1.177945,0.716561,1.045510,0.777514,0.898356,0.808588,0.742139,0.808588,0.582861,0.777514,0.426644,0.716561,0.279490,0.628071,0.147055,0.515445,0.034429,0.383010,-0.054061,0.235856,-0.115014,0.079639,-0.146088,0.031751,-0.146088,0.029264,-0.147118,-0.029264,-0.147118,-0.031751,-0.146088,-0.079639,-0.146088,
-0.235856,-0.115014,-0.383010,-0.054061,-0.515445,0.034429,-0.628071,0.147055,-0.716561,0.279490,-0.777514,0.426644,-0.808588,0.582861,-0.808588,0.729972,-0.512500,0.729972,-0.512500,0.595028,-0.477574,0.464683,-0.410102,0.347818,-0.314682,0.252398,-0.197817,0.184926,-0.067472,0.150000,0.067472,0.150000,0.197817,0.184926,0.314682,0.252398,0.410102,0.347818,0.477574,0.464683,
0.512500,0.595028,0.512500,0.729972,0.477574,0.860317,0.410102,0.977182,0.314682,1.072602,0.197817,1.140074,0.067472,1.175000,-0.067472,1.175000,-0.197817,1.140074,-0.314682,1.072602,-0.410102,0.977182,-0.477574,0.860317,-0.512500,0.729972,-0.808588,0.729972,-0.808588,0.742139,-0.777514,0.898356,-0.716561,1.045510,-0.628071,1.177945,-0.515445,1.290571,-0.383010,1.379061,
-0.235856,1.440014,-0.079639,1.471088,0.079639,1.471088,0.235856,1.440014,0.235856,1.440014,$1*%
G04 Aperture macros list end*
%TA.AperFunction,SMDPad,CuDef*%
%ADD10C,1.500000*%
%TD*%
%TA.AperFunction,SMDPad,CuDef*%
%ADD11RoundRect,0.250000X0.450000X-0.262500X0.450000X0.262500X-0.450000X0.262500X-0.450000X-0.262500X0*%
%TD*%
%TA.AperFunction,SMDPad,CuDef*%
%ADD12RoundRect,0.150000X0.150000X0.425000X-0.150000X0.425000X-0.150000X-0.425000X0.150000X-0.425000X0*%
%TD*%
%TA.AperFunction,SMDPad,CuDef*%
%ADD13RoundRect,0.075000X0.075000X0.500000X-0.075000X0.500000X-0.075000X-0.500000X0.075000X-0.500000X0*%
%TD*%
%TA.AperFunction,ComponentPad*%
%ADD14O,1.000000X2.100000*%
%TD*%
%TA.AperFunction,ComponentPad*%
%ADD15O,1.000000X1.800000*%
%TD*%
%TA.AperFunction,ComponentPad*%
%ADD16R,1.700000X1.700000*%
%TD*%
%TA.AperFunction,ComponentPad*%
%ADD17C,1.700000*%
%TD*%
%TA.AperFunction,SMDPad,CuDef*%
%ADD18RoundRect,0.250000X-0.262500X-0.450000X0.262500X-0.450000X0.262500X0.450000X-0.262500X0.450000X0*%
%TD*%
%TA.AperFunction,SMDPad,CuDef*%
%ADD19RoundRect,0.250000X-0.250000X-0.475000X0.250000X-0.475000X0.250000X0.475000X-0.250000X0.475000X0*%
%TD*%
%TA.AperFunction,SMDPad,CuDef*%
%ADD20RoundRect,0.250000X0.650000X-0.325000X0.650000X0.325000X-0.650000X0.325000X-0.650000X-0.325000X0*%
%TD*%
%TA.AperFunction,SMDPad,CuDef*%
%ADD21RoundRect,0.235000X2.315000X-0.940000X2.315000X0.940000X-2.315000X0.940000X-2.315000X-0.940000X0*%
%TD*%
%TA.AperFunction,SMDPad,CuDef*%
%ADD22RoundRect,0.250000X0.475000X-0.250000X0.475000X0.250000X-0.475000X0.250000X-0.475000X-0.250000X0*%
%TD*%
%TA.AperFunction,SMDPad,CuDef*%
%ADD23RoundRect,0.150000X-0.512500X-0.150000X0.512500X-0.150000X0.512500X0.150000X-0.512500X0.150000X0*%
%TD*%
%TA.AperFunction,ComponentPad*%
%ADD24C,2.400000*%
%TD*%
%TA.AperFunction,SMDPad,CuDef*%
%ADD25RoundRect,0.150000X0.725000X0.150000X-0.725000X0.150000X-0.725000X-0.150000X0.725000X-0.150000X0*%
%TD*%
%TA.AperFunction,ComponentPad*%
%ADD26RoundRect,0.250000X-0.550000X-0.550000X0.550000X-0.550000X0.550000X0.550000X-0.550000X0.550000X0*%
%TD*%
%TA.AperFunction,ComponentPad*%
%ADD27C,1.600000*%
%TD*%
%TA.AperFunction,SMDPad,CuDef*%
%ADD28RoundRect,0.150000X-0.587500X-0.150000X0.587500X-0.150000X0.587500X0.150000X-0.587500X0.150000X0*%
%TD*%
%TA.AperFunction,SMDPad,CuDef*%
%ADD29RoundRect,0.062500X-0.350000X-0.062500X0.350000X-0.062500X0.350000X0.062500X-0.350000X0.062500X0*%
%TD*%
%TA.AperFunction,SMDPad,CuDef*%
%ADD30RoundRect,0.062500X-0.062500X-0.350000X0.062500X-0.350000X0.062500X0.350000X-0.062500X0.350000X0*%
%TD*%
%TA.AperFunction,HeatsinkPad*%
%ADD31R,1.230000X1.230000*%
%TD*%
%TA.AperFunction,SMDPad,CuDef*%
%ADD32RoundRect,0.250000X-0.325000X-0.650000X0.325000X-0.650000X0.325000X0.650000X-0.325000X0.650000X0*%
%TD*%
%TA.AperFunction,SMDPad,CuDef*%
%ADD33RoundRect,0.087500X-0.537500X-0.087500X0.537500X-0.087500X0.537500X0.087500X-0.537500X0.087500X0*%
%TD*%
%TA.AperFunction,ComponentPad*%
%ADD34C,2.000000*%
%TD*%
%TA.AperFunction,SMDPad,CuDef*%
%ADD35R,0.600000X0.522000*%
%TD*%
%TA.AperFunction,SMDPad,CuDef*%
%ADD36FreePoly0,90.000000*%
%TD*%
%TA.AperFunction,SMDPad,CuDef*%
%ADD37RoundRect,0.070000X-0.355000X0.070000X-0.355000X-0.070000X0.355000X-0.070000X0.355000X0.070000X0*%
%TD*%
%TA.AperFunction,SMDPad,CuDef*%
%ADD38RoundRect,0.070000X-0.305000X0.070000X-0.305000X-0.070000X0.305000X-0.070000X0.305000X0.070000X0*%
%TD*%
%TA.AperFunction,SMDPad,CuDef*%
%ADD39RoundRect,0.250000X0.250000X0.475000X-0.250000X0.475000X-0.250000X-0.475000X0.250000X-0.475000X0*%
%TD*%
%TA.AperFunction,ComponentPad*%
%ADD40RoundRect,0.250000X-0.750000X-0.750000X0.750000X-0.750000X0.750000X0.750000X-0.750000X0.750000X0*%
%TD*%
%TA.AperFunction,SMDPad,CuDef*%
%ADD41RoundRect,0.225000X-0.225000X-0.375000X0.225000X-0.375000X0.225000X0.375000X-0.225000X0.375000X0*%
%TD*%
%TA.AperFunction,SMDPad,CuDef*%
%ADD42RoundRect,0.030000X-0.270000X-0.120000X0.270000X-0.120000X0.270000X0.120000X-0.270000X0.120000X0*%
%TD*%
%TA.AperFunction,SMDPad,CuDef*%
%ADD43RoundRect,0.025000X-0.100000X-0.300000X0.100000X-0.300000X0.100000X0.300000X-0.100000X0.300000X0*%
%TD*%
%TA.AperFunction,SMDPad,CuDef*%
%ADD44RoundRect,0.025000X-0.275000X-0.100000X0.275000X-0.100000X0.275000X0.100000X-0.275000X0.100000X0*%
%TD*%
%TA.AperFunction,SMDPad,CuDef*%
%ADD45RoundRect,0.030000X-0.120000X-1.170000X0.120000X-1.170000X0.120000X1.170000X-0.120000X1.170000X0*%
%TD*%
%TA.AperFunction,ComponentPad*%
%ADD46RoundRect,0.250001X-0.799999X-0.799999X0.799999X-0.799999X0.799999X0.799999X-0.799999X0.799999X0*%
%TD*%
%TA.AperFunction,ComponentPad*%
%ADD47C,2.100000*%
%TD*%
%TA.AperFunction,SMDPad,CuDef*%
%ADD48RoundRect,0.250000X0.650000X-1.000000X0.650000X1.000000X-0.650000X1.000000X-0.650000X-1.000000X0*%
%TD*%
%TA.AperFunction,SMDPad,CuDef*%
%ADD49RoundRect,0.062500X0.337500X0.062500X-0.337500X0.062500X-0.337500X-0.062500X0.337500X-0.062500X0*%
%TD*%
%TA.AperFunction,SMDPad,CuDef*%
%ADD50RoundRect,0.062500X0.062500X0.337500X-0.062500X0.337500X-0.062500X-0.337500X0.062500X-0.337500X0*%
%TD*%
%TA.AperFunction,HeatsinkPad*%
%ADD51R,2.750000X2.750000*%
%TD*%
%TA.AperFunction,ComponentPad*%
%ADD52R,1.800000X1.800000*%
%TD*%
%TA.AperFunction,ComponentPad*%
%ADD53C,1.800000*%
%TD*%
%TA.AperFunction,ViaPad*%
%ADD54C,0.600000*%
%TD*%
%TA.AperFunction,Conductor*%
%ADD55C,0.200000*%
%TD*%
%TA.AperFunction,Conductor*%
%ADD56C,0.750000*%
%TD*%
%TA.AperFunction,Conductor*%
%ADD57C,0.300000*%
%TD*%
%TA.AperFunction,Conductor*%
%ADD58C,0.150000*%
%TD*%
%TA.AperFunction,Conductor*%
%ADD59C,0.600000*%
%TD*%
%TA.AperFunction,Conductor*%
%ADD60C,0.250000*%
%TD*%
%TA.AperFunction,Conductor*%
%ADD61C,0.400000*%
%TD*%
%TA.AperFunction,Conductor*%
%ADD62C,0.500000*%
%TD*%
G04 APERTURE END LIST*
D10*
%TO.P,TP105,1*%
%TO.N,PI_FAULT_N*%
X115000000Y-69000000D03*
%TD*%
D11*
%TO.P,R404,1*%
%TO.N,SERVO_5V*%
X74000000Y-102912500D03*
%TO.P,R404,2*%
%TO.N,REGEN_REF*%
X74000000Y-101087500D03*
%TD*%
D10*
%TO.P,TP202,1*%
%TO.N,BCLK*%
X124000000Y-71000000D03*
%TD*%
D12*
%TO.P,J1,A1*%
%TO.N,GND*%
X83200000Y-56880000D03*
%TO.P,J1,A4*%
%TO.N,VBUS*%
X82400000Y-56880000D03*
D13*
%TO.P,J1,A5*%
%TO.N,CC1*%
X81250000Y-56880000D03*
%TO.P,J1,A6*%
%TO.N,unconnected-(J1-PadA6)*%
X80250000Y-56880000D03*
%TO.P,J1,A7*%
%TO.N,unconnected-(J1-PadA7)*%
X79750000Y-56880000D03*
%TO.P,J1,A8*%
%TO.N,unconnected-(J1-PadA8)*%
X78750000Y-56880000D03*
D12*
%TO.P,J1,A9*%
%TO.N,VBUS*%
X77600000Y-56880000D03*
%TO.P,J1,A12*%
%TO.N,GND*%
X76800000Y-56880000D03*
%TO.P,J1,B1*%
X76800000Y-56880000D03*
%TO.P,J1,B4*%
%TO.N,VBUS*%
X77600000Y-56880000D03*
D13*
%TO.P,J1,B5*%
%TO.N,CC2*%
X78250000Y-56880000D03*
%TO.P,J1,B6*%
%TO.N,unconnected-(J1-PadB6)*%
X79250000Y-56880000D03*
%TO.P,J1,B7*%
%TO.N,unconnected-(J1-PadB7)*%
X80750000Y-56880000D03*
%TO.P,J1,B8*%
%TO.N,unconnected-(J1-PadB8)*%
X81750000Y-56880000D03*
D12*
%TO.P,J1,B9*%
%TO.N,VBUS*%
X82400000Y-56880000D03*
%TO.P,J1,B12*%
%TO.N,GND*%
X83200000Y-56880000D03*
D14*
%TO.P,J1,SH*%
X84320000Y-56305000D03*
D15*
X84320000Y-52125000D03*
D14*
X75680000Y-56305000D03*
D15*
X75680000Y-52125000D03*
%TD*%
D16*
%TO.P,J2,1*%
%TO.N,PI_3V3*%
X134770000Y-58370000D03*
D17*
%TO.P,J2,2*%
%TO.N,PI_5V*%
X132230000Y-58370000D03*
%TO.P,J2,3*%
%TO.N,unconnected-(J2-Pad3)*%
X134770000Y-60910000D03*
%TO.P,J2,4*%
%TO.N,PI_5V*%
X132230000Y-60910000D03*
%TO.P,J2,5*%
%TO.N,unconnected-(J2-Pad5)*%
X134770000Y-63450000D03*
%TO.P,J2,6*%
%TO.N,GND*%
X132230000Y-63450000D03*
%TO.P,J2,7*%
%TO.N,unconnected-(J2-Pad7)*%
X134770000Y-65990000D03*
%TO.P,J2,8*%
%TO.N,unconnected-(J2-Pad8)*%
X132230000Y-65990000D03*
%TO.P,J2,9*%
%TO.N,GND*%
X134770000Y-68530000D03*
%TO.P,J2,10*%
%TO.N,unconnected-(J2-Pad10)*%
X132230000Y-68530000D03*
%TO.P,J2,11*%
%TO.N,AMP_ENABLE*%
X134770000Y-71070000D03*
%TO.P,J2,12*%
%TO.N,BCLK_PI*%
X132230000Y-71070000D03*
%TO.P,J2,13*%
%TO.N,SERVO_FAULT_N*%
X134770000Y-73610000D03*
%TO.P,J2,14*%
%TO.N,GND*%
X132230000Y-73610000D03*
%TO.P,J2,15*%
%TO.N,SERVO_REQUEST*%
X134770000Y-76150000D03*
%TO.P,J2,16*%
%TO.N,BUTTON_N*%
X132230000Y-76150000D03*
%TO.P,J2,17*%
%TO.N,unconnected-(J2-Pad17)*%
X134770000Y-78690000D03*
%TO.P,J2,18*%
%TO.N,LED_GPIO*%
X132230000Y-78690000D03*
%TO.P,J2,19*%
%TO.N,unconnected-(J2-Pad19)*%
X134770000Y-81230000D03*
%TO.P,J2,20*%
%TO.N,GND*%
X132230000Y-81230000D03*
%TO.P,J2,21*%
%TO.N,unconnected-(J2-Pad21)*%
X134770000Y-83770000D03*
%TO.P,J2,22*%
%TO.N,SUPPLY_OK*%
X132230000Y-83770000D03*
%TO.P,J2,23*%
%TO.N,unconnected-(J2-Pad23)*%
X134770000Y-86310000D03*
%TO.P,J2,24*%
%TO.N,unconnected-(J2-Pad24)*%
X132230000Y-86310000D03*
%TO.P,J2,25*%
%TO.N,GND*%
X134770000Y-88850000D03*
%TO.P,J2,26*%
%TO.N,unconnected-(J2-Pad26)*%
X132230000Y-88850000D03*
%TO.P,J2,27*%
%TO.N,unconnected-(J2-Pad27)*%
X134770000Y-91390000D03*
%TO.P,J2,28*%
%TO.N,unconnected-(J2-Pad28)*%
X132230000Y-91390000D03*
%TO.P,J2,29*%
%TO.N,unconnected-(J2-Pad29)*%
X134770000Y-93930000D03*
%TO.P,J2,30*%
%TO.N,GND*%
X132230000Y-93930000D03*
%TO.P,J2,31*%
%TO.N,unconnected-(J2-Pad31)*%
X134770000Y-96470000D03*
%TO.P,J2,32*%
%TO.N,JAW_PWM*%
X132230000Y-96470000D03*
%TO.P,J2,33*%
%TO.N,unconnected-(J2-Pad33)*%
X134770000Y-99010000D03*
%TO.P,J2,34*%
%TO.N,GND*%
X132230000Y-99010000D03*
%TO.P,J2,35*%
%TO.N,LRCLK_PI*%
X134770000Y-101550000D03*
%TO.P,J2,36*%
%TO.N,unconnected-(J2-Pad36)*%
X132230000Y-101550000D03*
%TO.P,J2,37*%
%TO.N,unconnected-(J2-Pad37)*%
X134770000Y-104090000D03*
%TO.P,J2,38*%
%TO.N,MIC_DATA_PI*%
X132230000Y-104090000D03*
%TO.P,J2,39*%
%TO.N,GND*%
X134770000Y-106630000D03*
%TO.P,J2,40*%
%TO.N,AMP_DATA_PI*%
X132230000Y-106630000D03*
%TD*%
D18*
%TO.P,R103,1*%
%TO.N,PD_5V*%
X100087500Y-69000000D03*
%TO.P,R103,2*%
%TO.N,PI_OV*%
X101912500Y-69000000D03*
%TD*%
%TO.P,R114,1*%
%TO.N,PD_5V*%
X117087500Y-76000000D03*
%TO.P,R114,2*%
%TO.N,PI_EN_UVLO*%
X118912500Y-76000000D03*
%TD*%
%TO.P,R201,1*%
%TO.N,BCLK_PI*%
X127087500Y-71000000D03*
%TO.P,R201,2*%
%TO.N,BCLK*%
X128912500Y-71000000D03*
%TD*%
D19*
%TO.P,C109,1*%
%TO.N,PI_3V3*%
X100050000Y-85000000D03*
%TO.P,C109,2*%
%TO.N,GND*%
X101950000Y-85000000D03*
%TD*%
D18*
%TO.P,R410,1*%
%TO.N,PI_3V3*%
X157087500Y-121000000D03*
%TO.P,R410,2*%
%TO.N,BUTTON_RC*%
X158912500Y-121000000D03*
%TD*%
D20*
%TO.P,C108,1*%
%TO.N,SERVO_5V*%
X74000000Y-84475000D03*
%TO.P,C108,2*%
%TO.N,GND*%
X74000000Y-81525000D03*
%TD*%
D10*
%TO.P,TP1,1*%
%TO.N,VBUS*%
X88000000Y-54000000D03*
%TD*%
D11*
%TO.P,R405,1*%
%TO.N,REGEN_REF*%
X78000000Y-100912500D03*
%TO.P,R405,2*%
%TO.N,GND*%
X78000000Y-99087500D03*
%TD*%
%TO.P,R301,1*%
%TO.N,PI_3V3*%
X67000000Y-128912500D03*
%TO.P,R301,2*%
%TO.N,MIC_3V3*%
X67000000Y-127087500D03*
%TD*%
D21*
%TO.P,L1,1*%
%TO.N,AMP_P*%
X104000000Y-107575000D03*
%TO.P,L1,2*%
%TO.N,SPK_P*%
X104000000Y-103425000D03*
%TD*%
D11*
%TO.P,R101,1*%
%TO.N,PI_ILM*%
X111000000Y-66912500D03*
%TO.P,R101,2*%
%TO.N,GND*%
X111000000Y-65087500D03*
%TD*%
D22*
%TO.P,C1,1*%
%TO.N,VBUS*%
X74000000Y-60950000D03*
%TO.P,C1,2*%
%TO.N,GND*%
X74000000Y-59050000D03*
%TD*%
D10*
%TO.P,TP205,1*%
%TO.N,GND*%
X128000000Y-67000000D03*
%TD*%
D11*
%TO.P,R4,1*%
%TO.N,VBUS*%
X68000000Y-63912500D03*
%TO.P,R4,2*%
%TO.N,GND*%
X68000000Y-62087500D03*
%TD*%
D10*
%TO.P,TP4,1*%
%TO.N,GND*%
X66000000Y-60000000D03*
%TD*%
D18*
%TO.P,R115,1*%
%TO.N,PI_EN_UVLO*%
X122087500Y-76000000D03*
%TO.P,R115,2*%
%TO.N,GND*%
X123912500Y-76000000D03*
%TD*%
%TO.P,R105,1*%
%TO.N,PD_5V*%
X77087500Y-78000000D03*
%TO.P,R105,2*%
%TO.N,SERVO_OV*%
X78912500Y-78000000D03*
%TD*%
%TO.P,R406,1*%
%TO.N,SERVO_5V*%
X66087500Y-96000000D03*
%TO.P,R406,2*%
%TO.N,REGEN_K*%
X67912500Y-96000000D03*
%TD*%
D19*
%TO.P,C110,1*%
%TO.N,PI_3V3*%
X92050000Y-82000000D03*
%TO.P,C110,2*%
%TO.N,GND*%
X93950000Y-82000000D03*
%TD*%
%TO.P,C301,1*%
%TO.N,MIC_3V3*%
X64050000Y-132000000D03*
%TO.P,C301,2*%
%TO.N,GND*%
X65950000Y-132000000D03*
%TD*%
D18*
%TO.P,R104,1*%
%TO.N,PI_OV*%
X100087500Y-72000000D03*
%TO.P,R104,2*%
%TO.N,GND*%
X101912500Y-72000000D03*
%TD*%
%TO.P,R409,1*%
%TO.N,BUTTON_SWITCH*%
X151087500Y-121000000D03*
%TO.P,R409,2*%
%TO.N,BUTTON_RC*%
X152912500Y-121000000D03*
%TD*%
%TO.P,R110,1*%
%TO.N,SERVO_EN*%
X88087500Y-89000000D03*
%TO.P,R110,2*%
%TO.N,GND*%
X89912500Y-89000000D03*
%TD*%
D16*
%TO.P,J4,1*%
%TO.N,GND*%
X65000000Y-91000000D03*
D17*
%TO.P,J4,2*%
%TO.N,SERVO_5V*%
X67540000Y-91000000D03*
%TO.P,J4,3*%
%TO.N,JAW_SIG*%
X70080000Y-91000000D03*
%TD*%
D23*
%TO.P,U8,1*%
%TO.N,unconnected-(U8-NC-Pad1)*%
X74862500Y-89050000D03*
%TO.P,U8,2*%
%TO.N,JAW_PWM*%
X74862500Y-90000000D03*
%TO.P,U8,3*%
%TO.N,GND*%
X74862500Y-90950000D03*
%TO.P,U8,4*%
%TO.N,JAW_OD*%
X77137500Y-90950000D03*
%TO.P,U8,5*%
%TO.N,PI_3V3*%
X77137500Y-89050000D03*
%TD*%
D24*
%TO.P,R408,1*%
%TO.N,DUMP*%
X64000000Y-109000000D03*
%TO.P,R408,2*%
%TO.N,GND*%
X94480000Y-109000000D03*
%TD*%
D25*
%TO.P,Q1,1*%
%TO.N,PFET_SOURCE*%
X93575000Y-59905000D03*
%TO.P,Q1,2*%
X93575000Y-58635000D03*
%TO.P,Q1,3*%
X93575000Y-57365000D03*
%TO.P,Q1,4*%
%TO.N,PFET_GATE*%
X93575000Y-56095000D03*
%TO.P,Q1,5*%
%TO.N,VBUS*%
X88425000Y-56095000D03*
%TO.P,Q1,6*%
X88425000Y-57365000D03*
%TO.P,Q1,7*%
X88425000Y-58635000D03*
%TO.P,Q1,8*%
X88425000Y-59905000D03*
%TD*%
D18*
%TO.P,R106,1*%
%TO.N,SERVO_OV*%
X77087500Y-81000000D03*
%TO.P,R106,2*%
%TO.N,GND*%
X78912500Y-81000000D03*
%TD*%
D22*
%TO.P,C2,1*%
%TO.N,PD_3V3*%
X85000000Y-64950000D03*
%TO.P,C2,2*%
%TO.N,GND*%
X85000000Y-63050000D03*
%TD*%
D19*
%TO.P,C401,1*%
%TO.N,PI_3V3*%
X75050000Y-87000000D03*
%TO.P,C401,2*%
%TO.N,GND*%
X76950000Y-87000000D03*
%TD*%
D18*
%TO.P,R107,1*%
%TO.N,PI_5V*%
X96087500Y-75000000D03*
%TO.P,R107,2*%
%TO.N,UV_SENSE*%
X97912500Y-75000000D03*
%TD*%
D11*
%TO.P,R403,1*%
%TO.N,JAW_OD*%
X73000000Y-90912500D03*
%TO.P,R403,2*%
%TO.N,JAW_SIG*%
X73000000Y-89087500D03*
%TD*%
D19*
%TO.P,C303,1*%
%TO.N,PI_5V*%
X108050000Y-100000000D03*
%TO.P,C303,2*%
%TO.N,GND*%
X109950000Y-100000000D03*
%TD*%
D11*
%TO.P,R401,1*%
%TO.N,JAW_PWM*%
X81000000Y-90912500D03*
%TO.P,R401,2*%
%TO.N,GND*%
X81000000Y-89087500D03*
%TD*%
D26*
%TO.P,C106,1*%
%TO.N,SERVO_5V*%
X65000000Y-80000000D03*
D27*
%TO.P,C106,2*%
%TO.N,GND*%
X68500000Y-80000000D03*
%TD*%
D28*
%TO.P,U9,1*%
%TO.N,REGEN_K*%
X71062500Y-97050000D03*
%TO.P,U9,2*%
%TO.N,REGEN_REF*%
X71062500Y-98950000D03*
%TO.P,U9,3*%
%TO.N,GND*%
X72937500Y-98000000D03*
%TD*%
D18*
%TO.P,R111,1*%
%TO.N,SERVO_REQUEST*%
X92087500Y-90000000D03*
%TO.P,R111,2*%
%TO.N,GND*%
X93912500Y-90000000D03*
%TD*%
D23*
%TO.P,U5,1*%
%TO.N,SERVO_ARMED*%
X91862500Y-84050000D03*
%TO.P,U5,2*%
%TO.N,SERVO_REQUEST*%
X91862500Y-85000000D03*
%TO.P,U5,3*%
%TO.N,GND*%
X91862500Y-85950000D03*
%TO.P,U5,4*%
%TO.N,SERVO_EN*%
X94137500Y-85950000D03*
%TO.P,U5,5*%
%TO.N,PI_3V3*%
X94137500Y-84050000D03*
%TD*%
D19*
%TO.P,C3,1*%
%TO.N,PD_3V3*%
X85050000Y-68000000D03*
%TO.P,C3,2*%
%TO.N,GND*%
X86950000Y-68000000D03*
%TD*%
D29*
%TO.P,U7,1*%
%TO.N,AMP_DATA*%
X106562500Y-95750000D03*
%TO.P,U7,2*%
%TO.N,AMP_GAIN*%
X106562500Y-96250000D03*
%TO.P,U7,3*%
%TO.N,GND*%
X106562500Y-96750000D03*
%TO.P,U7,4*%
%TO.N,AMP_SD*%
X106562500Y-97250000D03*
D30*
%TO.P,U7,5*%
%TO.N,unconnected-(U7-NC-Pad5)*%
X107250000Y-97937500D03*
%TO.P,U7,6*%
%TO.N,unconnected-(U7-NC-Pad6)*%
X107750000Y-97937500D03*
%TO.P,U7,7*%
%TO.N,PI_5V*%
X108250000Y-97937500D03*
%TO.P,U7,8*%
X108750000Y-97937500D03*
D29*
%TO.P,U7,9*%
%TO.N,AMP_P*%
X109437500Y-97250000D03*
%TO.P,U7,10*%
%TO.N,AMP_N*%
X109437500Y-96750000D03*
%TO.P,U7,11*%
%TO.N,GND*%
X109437500Y-96250000D03*
%TO.P,U7,12*%
%TO.N,unconnected-(U7-NC-Pad12)*%
X109437500Y-95750000D03*
D30*
%TO.P,U7,13*%
%TO.N,unconnected-(U7-NC-Pad13)*%
X108750000Y-95062500D03*
%TO.P,U7,14*%
%TO.N,LRCLK*%
X108250000Y-95062500D03*
%TO.P,U7,15*%
%TO.N,GND*%
X107750000Y-95062500D03*
%TO.P,U7,16*%
%TO.N,BCLK*%
X107250000Y-95062500D03*
D31*
%TO.P,U7,17*%
%TO.N,GND*%
X108000000Y-96500000D03*
%TD*%
D10*
%TO.P,TP403,1*%
%TO.N,BUTTON_N*%
X164000000Y-121000000D03*
%TD*%
D32*
%TO.P,C304,1*%
%TO.N,PI_5V*%
X103525000Y-100000000D03*
%TO.P,C304,2*%
%TO.N,GND*%
X106475000Y-100000000D03*
%TD*%
D21*
%TO.P,L2,1*%
%TO.N,AMP_N*%
X112000000Y-107575000D03*
%TO.P,L2,2*%
%TO.N,SPK_N*%
X112000000Y-103425000D03*
%TD*%
D25*
%TO.P,Q2,1*%
%TO.N,PFET_SOURCE*%
X102575000Y-59905000D03*
%TO.P,Q2,2*%
X102575000Y-58635000D03*
%TO.P,Q2,3*%
X102575000Y-57365000D03*
%TO.P,Q2,4*%
%TO.N,PFET_GATE*%
X102575000Y-56095000D03*
%TO.P,Q2,5*%
%TO.N,PD_5V*%
X97425000Y-56095000D03*
%TO.P,Q2,6*%
X97425000Y-57365000D03*
%TO.P,Q2,7*%
X97425000Y-58635000D03*
%TO.P,Q2,8*%
X97425000Y-59905000D03*
%TD*%
D33*
%TO.P,U11,1*%
%TO.N,SERVO_REQUEST*%
X114600000Y-121250000D03*
%TO.P,U11,2*%
%TO.N,PI_3V3*%
X114600000Y-121750000D03*
%TO.P,U11,3*%
%TO.N,unconnected-(U11-Q_N-Pad3)*%
X114600000Y-122250000D03*
%TO.P,U11,4*%
%TO.N,GND*%
X114600000Y-122750000D03*
%TO.P,U11,5*%
%TO.N,SERVO_ARMED*%
X117400000Y-122750000D03*
%TO.P,U11,6*%
%TO.N,SUPPLY_OK*%
X117400000Y-122250000D03*
%TO.P,U11,7*%
%TO.N,PI_3V3*%
X117400000Y-121750000D03*
%TO.P,U11,8*%
X117400000Y-121250000D03*
%TD*%
D11*
%TO.P,R302,1*%
%TO.N,MIC_DATA*%
X60000000Y-130912500D03*
%TO.P,R302,2*%
%TO.N,MIC_DATA_PI*%
X60000000Y-129087500D03*
%TD*%
D34*
%TO.P,SW1,1*%
%TO.N,BUTTON_SWITCH*%
X155000000Y-132000000D03*
X161500000Y-132000000D03*
%TO.P,SW1,2*%
%TO.N,GND*%
X155000000Y-136500000D03*
X161500000Y-136500000D03*
%TD*%
D35*
%TO.P,U6,1*%
%TO.N,LRCLK*%
X59100000Y-133926000D03*
%TO.P,U6,2*%
%TO.N,GND*%
X59100000Y-134748000D03*
D36*
%TO.P,U6,3*%
X60662500Y-136000000D03*
D35*
%TO.P,U6,4*%
%TO.N,BCLK*%
X60900000Y-134748000D03*
%TO.P,U6,5*%
%TO.N,MIC_3V3*%
X60900000Y-133926000D03*
%TO.P,U6,6*%
%TO.N,MIC_DATA*%
X60000000Y-133926000D03*
%TD*%
D18*
%TO.P,R2,1*%
%TO.N,PFET_SOURCE*%
X93087500Y-65000000D03*
%TO.P,R2,2*%
%TO.N,PFET_GATE*%
X94912500Y-65000000D03*
%TD*%
D37*
%TO.P,U4,1*%
%TO.N,UV_SENSE*%
X100475000Y-80500000D03*
D38*
%TO.P,U4,2*%
%TO.N,GND*%
X100425000Y-81000000D03*
%TO.P,U4,3*%
%TO.N,PI_3V3*%
X100425000Y-81500000D03*
%TO.P,U4,4*%
X101575000Y-81500000D03*
%TO.P,U4,5*%
%TO.N,UV_DELAY*%
X101575000Y-81000000D03*
%TO.P,U4,6*%
%TO.N,SUPPLY_OK*%
X101575000Y-80500000D03*
%TD*%
D39*
%TO.P,C104,1*%
%TO.N,PD_5V*%
X82950000Y-74000000D03*
%TO.P,C104,2*%
%TO.N,GND*%
X81050000Y-74000000D03*
%TD*%
D10*
%TO.P,TP106,1*%
%TO.N,GND*%
X110000000Y-56000000D03*
%TD*%
D40*
%TO.P,C105,1*%
%TO.N,PI_5V*%
X118000000Y-64000000D03*
D34*
%TO.P,C105,2*%
%TO.N,GND*%
X123000000Y-64000000D03*
%TD*%
D10*
%TO.P,TP302,1*%
%TO.N,PI_5V*%
X119000000Y-92000000D03*
%TD*%
D18*
%TO.P,R3,1*%
%TO.N,PD_3V3*%
X78087500Y-71000000D03*
%TO.P,R3,2*%
%TO.N,PD_FLIP*%
X79912500Y-71000000D03*
%TD*%
D10*
%TO.P,TP201,1*%
%TO.N,PI_3V3*%
X128000000Y-63000000D03*
%TD*%
D11*
%TO.P,R407,1*%
%TO.N,REGEN_K*%
X63000000Y-100912500D03*
%TO.P,R407,2*%
%TO.N,REGEN_GATE*%
X63000000Y-99087500D03*
%TD*%
D41*
%TO.P,D1,1*%
%TO.N,PFET_SOURCE*%
X97350000Y-66000000D03*
%TO.P,D1,2*%
%TO.N,PFET_GATE*%
X100650000Y-66000000D03*
%TD*%
D18*
%TO.P,R305,1*%
%TO.N,AMP_ENABLE*%
X101087500Y-92000000D03*
%TO.P,R305,2*%
%TO.N,AMP_SD*%
X102912500Y-92000000D03*
%TD*%
D20*
%TO.P,C107,1*%
%TO.N,PI_5V*%
X114000000Y-61475000D03*
%TO.P,C107,2*%
%TO.N,GND*%
X114000000Y-58525000D03*
%TD*%
D11*
%TO.P,R411,1*%
%TO.N,LED_GPIO*%
X148000000Y-131912500D03*
%TO.P,R411,2*%
%TO.N,LED_A*%
X148000000Y-130087500D03*
%TD*%
D18*
%TO.P,R1,1*%
%TO.N,PD_GATE_DRV*%
X87087500Y-65000000D03*
%TO.P,R1,2*%
%TO.N,PFET_GATE*%
X88912500Y-65000000D03*
%TD*%
D22*
%TO.P,C4,1*%
%TO.N,PD_3V3*%
X76000000Y-65950000D03*
%TO.P,C4,2*%
%TO.N,GND*%
X76000000Y-64050000D03*
%TD*%
D10*
%TO.P,TP104,1*%
%TO.N,SERVO_ILM*%
X92000000Y-76000000D03*
%TD*%
%TO.P,TP203,1*%
%TO.N,LRCLK*%
X124000000Y-102000000D03*
%TD*%
%TO.P,TP102,1*%
%TO.N,SERVO_5V*%
X64000000Y-74000000D03*
%TD*%
D19*
%TO.P,C6,1*%
%TO.N,PD_5V*%
X77050000Y-74000000D03*
%TO.P,C6,2*%
%TO.N,GND*%
X78950000Y-74000000D03*
%TD*%
D10*
%TO.P,TP404,1*%
%TO.N,GND*%
X150000000Y-124000000D03*
%TD*%
D18*
%TO.P,R402,1*%
%TO.N,SERVO_5V*%
X76087500Y-94000000D03*
%TO.P,R402,2*%
%TO.N,JAW_OD*%
X77912500Y-94000000D03*
%TD*%
D41*
%TO.P,D101,1*%
%TO.N,PI_EN_UVLO*%
X126350000Y-76000000D03*
%TO.P,D101,2*%
%TO.N,GND*%
X129650000Y-76000000D03*
%TD*%
D10*
%TO.P,TP6,1*%
%TO.N,PD_1V8*%
X72000000Y-68000000D03*
%TD*%
D22*
%TO.P,C302,1*%
%TO.N,MIC_3V3*%
X64000000Y-135950000D03*
%TO.P,C302,2*%
%TO.N,GND*%
X64000000Y-134050000D03*
%TD*%
D10*
%TO.P,TP303,1*%
%TO.N,GND*%
X119000000Y-106000000D03*
%TD*%
D42*
%TO.P,U2,1*%
%TO.N,PI_EN_UVLO*%
X106100000Y-66300000D03*
D43*
X106275000Y-66125000D03*
D44*
%TO.P,U2,2*%
%TO.N,PI_OV*%
X106100000Y-66775000D03*
%TO.P,U2,3*%
%TO.N,unconnected-(U2-AUXOFF-Pad3)*%
X106100000Y-67225000D03*
D42*
%TO.P,U2,4*%
%TO.N,PI_FAULT_N*%
X106100000Y-67700000D03*
D43*
X106275000Y-67875000D03*
D45*
%TO.P,U2,5*%
%TO.N,PD_5V*%
X106750000Y-67000000D03*
%TO.P,U2,6*%
%TO.N,PI_5V*%
X107250000Y-67000000D03*
D43*
%TO.P,U2,7*%
%TO.N,PI_DVDT*%
X107725000Y-67875000D03*
D42*
X107900000Y-67700000D03*
D44*
%TO.P,U2,8*%
%TO.N,GND*%
X107900000Y-67225000D03*
%TO.P,U2,9*%
%TO.N,PI_ILM*%
X107900000Y-66775000D03*
D43*
%TO.P,U2,10*%
%TO.N,unconnected-(U2-ITIMER-Pad10)*%
X107725000Y-66125000D03*
D42*
X107900000Y-66300000D03*
%TD*%
D19*
%TO.P,C5,1*%
%TO.N,PD_1V8*%
X82050000Y-61000000D03*
%TO.P,C5,2*%
%TO.N,GND*%
X83950000Y-61000000D03*
%TD*%
%TO.P,C403,1*%
%TO.N,PI_3V3*%
X155050000Y-129000000D03*
%TO.P,C403,2*%
%TO.N,GND*%
X156950000Y-129000000D03*
%TD*%
D42*
%TO.P,U3,1*%
%TO.N,SERVO_EN*%
X83100000Y-78300000D03*
D43*
X83275000Y-78125000D03*
D44*
%TO.P,U3,2*%
%TO.N,SERVO_OV*%
X83100000Y-78775000D03*
%TO.P,U3,3*%
%TO.N,unconnected-(U3-AUXOFF-Pad3)*%
X83100000Y-79225000D03*
D42*
%TO.P,U3,4*%
%TO.N,SERVO_FAULT_N*%
X83100000Y-79700000D03*
D43*
X83275000Y-79875000D03*
D45*
%TO.P,U3,5*%
%TO.N,PD_5V*%
X83750000Y-79000000D03*
%TO.P,U3,6*%
%TO.N,SERVO_5V*%
X84250000Y-79000000D03*
D43*
%TO.P,U3,7*%
%TO.N,SERVO_DVDT*%
X84725000Y-79875000D03*
D42*
X84900000Y-79700000D03*
D44*
%TO.P,U3,8*%
%TO.N,GND*%
X84900000Y-79225000D03*
%TO.P,U3,9*%
%TO.N,SERVO_ILM*%
X84900000Y-78775000D03*
D43*
%TO.P,U3,10*%
%TO.N,unconnected-(U3-ITIMER-Pad10)*%
X84725000Y-78125000D03*
D42*
X84900000Y-78300000D03*
%TD*%
D39*
%TO.P,C103,1*%
%TO.N,PD_5V*%
X105950000Y-62000000D03*
%TO.P,C103,2*%
%TO.N,GND*%
X104050000Y-62000000D03*
%TD*%
D10*
%TO.P,TP301,1*%
%TO.N,MIC_3V3*%
X70000000Y-132000000D03*
%TD*%
D18*
%TO.P,R109,1*%
%TO.N,SUPPLY_OK*%
X104087500Y-76000000D03*
%TO.P,R109,2*%
%TO.N,PI_3V3*%
X105912500Y-76000000D03*
%TD*%
D19*
%TO.P,C112,1*%
%TO.N,PI_3V3*%
X120050000Y-122000000D03*
%TO.P,C112,2*%
%TO.N,GND*%
X121950000Y-122000000D03*
%TD*%
D46*
%TO.P,J3,1*%
%TO.N,SPK_P*%
X107000000Y-116000000D03*
D47*
%TO.P,J3,2*%
%TO.N,SPK_N*%
X109540000Y-116000000D03*
%TD*%
D11*
%TO.P,R303,1*%
%TO.N,MIC_DATA_PI*%
X57000000Y-128912500D03*
%TO.P,R303,2*%
%TO.N,GND*%
X57000000Y-127087500D03*
%TD*%
D28*
%TO.P,Q3,1*%
%TO.N,REGEN_GATE*%
X66062500Y-99050000D03*
%TO.P,Q3,2*%
%TO.N,SERVO_5V*%
X66062500Y-100950000D03*
%TO.P,Q3,3*%
%TO.N,DUMP*%
X67937500Y-100000000D03*
%TD*%
D11*
%TO.P,R306,1*%
%TO.N,AMP_SD*%
X107000000Y-91912500D03*
%TO.P,R306,2*%
%TO.N,GND*%
X107000000Y-90087500D03*
%TD*%
D22*
%TO.P,C308,1*%
%TO.N,SPK_N*%
X117000000Y-112950000D03*
%TO.P,C308,2*%
%TO.N,GND*%
X117000000Y-111050000D03*
%TD*%
D48*
%TO.P,D2,1*%
%TO.N,VBUS*%
X70000000Y-57000000D03*
%TO.P,D2,2*%
%TO.N,GND*%
X70000000Y-53000000D03*
%TD*%
D26*
%TO.P,C305,1*%
%TO.N,PI_5V*%
X119000000Y-98000000D03*
D27*
%TO.P,C305,2*%
%TO.N,GND*%
X121000000Y-98000000D03*
%TD*%
D18*
%TO.P,R108,1*%
%TO.N,UV_SENSE*%
X96087500Y-78000000D03*
%TO.P,R108,2*%
%TO.N,GND*%
X97912500Y-78000000D03*
%TD*%
D10*
%TO.P,TP401,1*%
%TO.N,JAW_SIG*%
X62000000Y-95000000D03*
%TD*%
D11*
%TO.P,R304,1*%
%TO.N,AMP_GAIN*%
X102000000Y-96912500D03*
%TO.P,R304,2*%
%TO.N,PI_5V*%
X102000000Y-95087500D03*
%TD*%
D23*
%TO.P,U10,1*%
%TO.N,unconnected-(U10-NC-Pad1)*%
X154862500Y-124050000D03*
%TO.P,U10,2*%
%TO.N,BUTTON_RC*%
X154862500Y-125000000D03*
%TO.P,U10,3*%
%TO.N,GND*%
X154862500Y-125950000D03*
%TO.P,U10,4*%
%TO.N,BUTTON_N*%
X157137500Y-125950000D03*
%TO.P,U10,5*%
%TO.N,PI_3V3*%
X157137500Y-124050000D03*
%TD*%
D18*
%TO.P,R202,1*%
%TO.N,LRCLK_PI*%
X127087500Y-102000000D03*
%TO.P,R202,2*%
%TO.N,LRCLK*%
X128912500Y-102000000D03*
%TD*%
D22*
%TO.P,C307,1*%
%TO.N,SPK_P*%
X99000000Y-112950000D03*
%TO.P,C307,2*%
%TO.N,GND*%
X99000000Y-111050000D03*
%TD*%
D10*
%TO.P,TP103,1*%
%TO.N,SUPPLY_OK*%
X108000000Y-79000000D03*
%TD*%
%TO.P,TP3,1*%
%TO.N,PD_FAULT*%
X75000000Y-72000000D03*
%TD*%
D22*
%TO.P,C111,1*%
%TO.N,UV_DELAY*%
X106000000Y-83950000D03*
%TO.P,C111,2*%
%TO.N,GND*%
X106000000Y-82050000D03*
%TD*%
D10*
%TO.P,TP101,1*%
%TO.N,PI_5V*%
X125000000Y-55000000D03*
%TD*%
D11*
%TO.P,R203,1*%
%TO.N,AMP_DATA_PI*%
X140000000Y-111912500D03*
%TO.P,R203,2*%
%TO.N,AMP_DATA*%
X140000000Y-110087500D03*
%TD*%
D19*
%TO.P,C306,1*%
%TO.N,SPK_P*%
X107050000Y-110500000D03*
%TO.P,C306,2*%
%TO.N,SPK_N*%
X108950000Y-110500000D03*
%TD*%
D10*
%TO.P,TP5,1*%
%TO.N,PD_3V3*%
X85000000Y-71000000D03*
%TD*%
D22*
%TO.P,C102,1*%
%TO.N,SERVO_DVDT*%
X88000000Y-82950000D03*
%TO.P,C102,2*%
%TO.N,GND*%
X88000000Y-81050000D03*
%TD*%
%TO.P,C101,1*%
%TO.N,PI_DVDT*%
X111000000Y-70950000D03*
%TO.P,C101,2*%
%TO.N,GND*%
X111000000Y-69050000D03*
%TD*%
D10*
%TO.P,TP204,1*%
%TO.N,MIC_DATA_PI*%
X138000000Y-104000000D03*
%TD*%
D49*
%TO.P,U1,1*%
%TO.N,GND*%
X81975000Y-66250000D03*
%TO.P,U1,2*%
X81975000Y-65750000D03*
%TO.P,U1,3*%
%TO.N,PD_GATE_DRV*%
X81975000Y-65250000D03*
%TO.P,U1,4*%
%TO.N,unconnected-(U1-SAFE_PWR_EN-Pad4)*%
X81975000Y-64750000D03*
%TO.P,U1,5*%
%TO.N,PD_3V3*%
X81975000Y-64250000D03*
%TO.P,U1,6*%
%TO.N,GND*%
X81975000Y-63750000D03*
D50*
%TO.P,U1,7*%
%TO.N,unconnected-(U1-HPI_INT-Pad7)*%
X81250000Y-63025000D03*
%TO.P,U1,8*%
%TO.N,unconnected-(U1-GPIO_1-Pad8)*%
X80750000Y-63025000D03*
%TO.P,U1,9*%
%TO.N,PD_FAULT*%
X80250000Y-63025000D03*
%TO.P,U1,10*%
%TO.N,PD_FLIP*%
X79750000Y-63025000D03*
%TO.P,U1,11*%
%TO.N,PD_5V*%
X79250000Y-63025000D03*
%TO.P,U1,12*%
%TO.N,unconnected-(U1-HPI_SDA-Pad12)*%
X78750000Y-63025000D03*
D49*
%TO.P,U1,13*%
%TO.N,unconnected-(U1-HPI_SCL-Pad13)*%
X78025000Y-63750000D03*
%TO.P,U1,14*%
%TO.N,CC2*%
X78025000Y-64250000D03*
%TO.P,U1,15*%
%TO.N,CC1*%
X78025000Y-64750000D03*
%TO.P,U1,16*%
%TO.N,unconnected-(U1-D--Pad16)*%
X78025000Y-65250000D03*
%TO.P,U1,17*%
%TO.N,unconnected-(U1-D+-Pad17)*%
X78025000Y-65750000D03*
%TO.P,U1,18*%
%TO.N,VBUS*%
X78025000Y-66250000D03*
D50*
%TO.P,U1,19*%
%TO.N,GND*%
X78750000Y-66975000D03*
%TO.P,U1,20*%
%TO.N,unconnected-(U1-DNU1-Pad20)*%
X79250000Y-66975000D03*
%TO.P,U1,21*%
%TO.N,unconnected-(U1-DNU2-Pad21)*%
X79750000Y-66975000D03*
%TO.P,U1,22*%
%TO.N,GND*%
X80250000Y-66975000D03*
%TO.P,U1,23*%
%TO.N,PD_3V3*%
X80750000Y-66975000D03*
%TO.P,U1,24*%
%TO.N,PD_1V8*%
X81250000Y-66975000D03*
D51*
%TO.P,U1,25*%
%TO.N,GND*%
X80000000Y-65000000D03*
%TD*%
D18*
%TO.P,R112,1*%
%TO.N,PI_3V3*%
X113087500Y-76000000D03*
%TO.P,R112,2*%
%TO.N,SERVO_FAULT_N*%
X114912500Y-76000000D03*
%TD*%
D10*
%TO.P,TP402,1*%
%TO.N,SERVO_EN*%
X85000000Y-86000000D03*
%TD*%
D22*
%TO.P,C402,1*%
%TO.N,BUTTON_RC*%
X160000000Y-124950000D03*
%TO.P,C402,2*%
%TO.N,GND*%
X160000000Y-123050000D03*
%TD*%
D18*
%TO.P,R113,1*%
%TO.N,PI_3V3*%
X113087500Y-73000000D03*
%TO.P,R113,2*%
%TO.N,PI_FAULT_N*%
X114912500Y-73000000D03*
%TD*%
D11*
%TO.P,R102,1*%
%TO.N,SERVO_ILM*%
X88000000Y-78912500D03*
%TO.P,R102,2*%
%TO.N,GND*%
X88000000Y-77087500D03*
%TD*%
D10*
%TO.P,TP2,1*%
%TO.N,PD_5V*%
X105000000Y-56000000D03*
%TD*%
D52*
%TO.P,D3,1*%
%TO.N,GND*%
X149500000Y-136000000D03*
D53*
%TO.P,D3,2*%
%TO.N,LED_A*%
X152040000Y-136000000D03*
%TD*%
D54*
%TO.N,SERVO_5V*%
X85250000Y-82500000D03*
X85250000Y-81700000D03*
X66937500Y-96000000D03*
X84450000Y-83300000D03*
X84450000Y-81700000D03*
X65200000Y-74000000D03*
X84450000Y-82500000D03*
X74000000Y-85475000D03*
X85250000Y-83300000D03*
%TO.N,BCLK*%
X77736200Y-136744400D03*
X107224400Y-94188400D03*
X122696000Y-71000000D03*
%TO.N,GND*%
X81000000Y-88237500D03*
X76585926Y-57856817D03*
X80000000Y-65000000D03*
X79762499Y-81000000D03*
X74000000Y-80525000D03*
X66800000Y-132000000D03*
X106000000Y-81200000D03*
X103200000Y-62000000D03*
X123200000Y-122000000D03*
X125200000Y-76000000D03*
X85000000Y-62199999D03*
X76000000Y-63199999D03*
X68000000Y-61237500D03*
X151200000Y-124000000D03*
X77900018Y-66980548D03*
X110800000Y-100000000D03*
X94762499Y-90000000D03*
X67200000Y-60000000D03*
X86100000Y-68000000D03*
X73396756Y-98715250D03*
X156100000Y-129000000D03*
X89062500Y-89000000D03*
X111000000Y-64237500D03*
X82693233Y-63295422D03*
X78000000Y-98237500D03*
X83414073Y-57856817D03*
X61481171Y-136877369D03*
X107285453Y-101262206D03*
X98862500Y-81000000D03*
X79800000Y-74000000D03*
X57000000Y-126237500D03*
X74000000Y-58199999D03*
X88000000Y-80200000D03*
X102790082Y-72479425D03*
X98762499Y-78000000D03*
X115900000Y-122800000D03*
X91551185Y-86740938D03*
X111000000Y-68200000D03*
X64000000Y-133200000D03*
X106520574Y-89209917D03*
X108000000Y-96500000D03*
X99000000Y-110200000D03*
X102800000Y-85000000D03*
X58285993Y-134503269D03*
X110619754Y-96044390D03*
X128084884Y-65803006D03*
X120200000Y-106000000D03*
X82769632Y-66051759D03*
X154365182Y-126639329D03*
X75862500Y-90950000D03*
X130800000Y-76000000D03*
X71262206Y-52189546D03*
X160000000Y-123899999D03*
X111200000Y-56000000D03*
X117000000Y-110200000D03*
X88000000Y-77937500D03*
X77800000Y-87000000D03*
X94800000Y-82000000D03*
X84800000Y-61000000D03*
X114000000Y-57525000D03*
%TO.N,VBUS*%
X82800000Y-58680000D03*
X86925000Y-57365000D03*
X78000000Y-58680000D03*
X77200000Y-58680000D03*
X86774600Y-54280800D03*
X74000000Y-63533700D03*
X86925000Y-58635000D03*
X86925000Y-59905000D03*
X82000000Y-58680000D03*
X86925000Y-56095000D03*
%TO.N,CC2*%
X78796500Y-58548300D03*
X77681100Y-63171600D03*
%TO.N,PI_3V3*%
X99000000Y-85700000D03*
X67855800Y-128056700D03*
X118700000Y-121200000D03*
X149941900Y-122679200D03*
X102900000Y-81800000D03*
X120800000Y-123100000D03*
X101600000Y-82000000D03*
X116100000Y-121800000D03*
X107200000Y-76000000D03*
X74088500Y-87104600D03*
X110001900Y-76605700D03*
%TO.N,PI_5V*%
X95800000Y-76300000D03*
X104063100Y-95087500D03*
X108250000Y-69700000D03*
X120200000Y-92000000D03*
X108250000Y-70500000D03*
X107450000Y-70500000D03*
X107450000Y-71300000D03*
X104818400Y-98083300D03*
X126200000Y-55000000D03*
X107450000Y-69700000D03*
X108250000Y-71300000D03*
%TO.N,SERVO_FAULT_N*%
X101702600Y-75005700D03*
X83304200Y-80652300D03*
%TO.N,BUTTON_N*%
X156000000Y-126071800D03*
X160404700Y-121773200D03*
%TO.N,LED_GPIO*%
X142251700Y-130852900D03*
%TO.N,SUPPLY_OK*%
X104600000Y-77200000D03*
X109300000Y-79000000D03*
X118700000Y-122200000D03*
X100700000Y-79600000D03*
X132699999Y-85000000D03*
%TO.N,PD_5V*%
X118000000Y-76900000D03*
X78328000Y-62268400D03*
X83550000Y-76300000D03*
X105750000Y-62700000D03*
X105750000Y-64300000D03*
X95925000Y-58635000D03*
X77425700Y-72487500D03*
X82750000Y-74700000D03*
X83550000Y-74700000D03*
X82750000Y-76300000D03*
X83550000Y-75500000D03*
X95925000Y-59905000D03*
X106550000Y-64300000D03*
X105750000Y-63500000D03*
X106550000Y-62700000D03*
X95925000Y-57365000D03*
X95925000Y-56095000D03*
X106550000Y-63500000D03*
X82750000Y-75500000D03*
%TO.N,PI_EN_UVLO*%
X127600000Y-76000000D03*
X120200000Y-76000000D03*
X105000000Y-66099999D03*
X123000000Y-76900000D03*
%TO.N,AMP_P*%
X109731800Y-97852000D03*
X105500500Y-105934300D03*
%TO.N,SERVO_EN*%
X82651300Y-77676300D03*
X84142000Y-85142000D03*
%TO.N,PFET_SOURCE*%
X95075000Y-59905000D03*
X104075000Y-57365000D03*
X104075000Y-58635000D03*
X104075000Y-59905000D03*
X95075000Y-58635000D03*
X95075000Y-57365000D03*
%TO.N,UV_SENSE*%
X97000000Y-78900000D03*
X99200000Y-80200000D03*
X97000000Y-74100000D03*
%TO.N,SERVO_ARMED*%
X90700000Y-84500000D03*
X118700000Y-123000000D03*
%TO.N,AMP_DATA*%
X106138242Y-94956270D03*
X140132057Y-110900000D03*
%TO.N,AMP_SD*%
X104552600Y-92000000D03*
X105506100Y-97250000D03*
%TO.N,AMP_N*%
X111571800Y-105934600D03*
X110303100Y-96750000D03*
%TO.N,UV_DELAY*%
X105300000Y-85000000D03*
X102900000Y-81000000D03*
%TO.N,PD_FLIP*%
X80578100Y-69931300D03*
X79750000Y-62155300D03*
%TO.N,PD_1V8*%
X81083700Y-60348200D03*
X83597600Y-66975000D03*
X78663200Y-69704900D03*
%TO.N,PD_FAULT*%
X80353100Y-61651100D03*
X77099400Y-70840000D03*
%TD*%
%TO.N,PI_FAULT_N*%
D55*
X106100000Y-70730600D02*
X107252100Y-71882700D01*
X107252100Y-71882700D02*
X114912500Y-71882700D01*
X115000000Y-69000000D02*
X114912500Y-69087500D01*
X114912500Y-69087500D02*
X114912500Y-71882700D01*
X106100000Y-67700000D02*
X106100000Y-70730600D01*
X106275000Y-67875000D02*
X106100000Y-67700000D01*
X114912500Y-71882700D02*
X114912500Y-73000000D01*
%TO.N,SERVO_5V*%
D56*
X75631000Y-94000000D02*
X76087500Y-94000000D01*
D57*
X84250000Y-79000000D02*
X84250000Y-81000000D01*
D58*
X66975400Y-99441500D02*
X66975400Y-99549600D01*
D56*
X84850000Y-81700000D02*
X85250000Y-83300000D01*
D55*
X66975400Y-99549600D02*
X66062500Y-100462500D01*
D59*
X66087500Y-96000000D02*
X66937500Y-96000000D01*
D56*
X84850000Y-81700000D02*
X84450000Y-83300000D01*
X84250000Y-81000000D02*
X84850000Y-81700000D01*
D60*
X70029900Y-98345600D02*
X70029900Y-99293700D01*
D56*
X84850000Y-81700000D02*
X85250000Y-82500000D01*
D59*
X68071300Y-98345600D02*
X66087500Y-96361800D01*
D56*
X73648700Y-102912500D02*
X74000000Y-102912500D01*
X84850000Y-81700000D02*
X84450000Y-81700000D01*
X84850000Y-81700000D02*
X84450000Y-82500000D01*
X66062500Y-100462500D02*
X66062500Y-100950000D01*
D55*
X70029900Y-99293700D02*
X73648700Y-102912500D01*
D56*
X67906900Y-98510000D02*
X68071300Y-98345600D01*
X66087500Y-96361800D02*
X66087500Y-96000000D01*
D60*
X70029900Y-98345600D02*
X71285400Y-98345600D01*
D55*
X71285400Y-98345600D02*
X75631000Y-94000000D01*
D60*
X68071300Y-98345600D02*
X70029900Y-98345600D01*
D56*
X64000000Y-74000000D02*
X65200000Y-74000000D01*
D58*
X67906900Y-98510000D02*
X66975400Y-99441500D01*
D56*
X74000000Y-84475000D02*
X74000000Y-85475000D01*
X84850000Y-81700000D02*
X85250000Y-81700000D01*
%TO.N,REGEN_REF*%
D55*
X73200000Y-101087500D02*
X71062500Y-98950000D01*
X74175000Y-100912500D02*
X74000000Y-101087500D01*
X74000000Y-101087500D02*
X73200000Y-101087500D01*
X78000000Y-100912500D02*
X74175000Y-100912500D01*
%TO.N,BCLK*%
X127921700Y-71990800D02*
X128912500Y-71000000D01*
X60900000Y-135260700D02*
X62383700Y-136744400D01*
X107224400Y-95036900D02*
X107250000Y-95062500D01*
X60900000Y-134748000D02*
X60900000Y-135260700D01*
X124000000Y-71000000D02*
X122696000Y-71000000D01*
X62383700Y-136744400D02*
X77736200Y-136744400D01*
X107224400Y-94188400D02*
X107224400Y-95036900D01*
X124990800Y-71990800D02*
X127921700Y-71990800D01*
X124000000Y-71000000D02*
X124990800Y-71990800D01*
%TO.N,GND*%
X79528200Y-65834300D02*
X78750000Y-66612500D01*
X107514600Y-101039600D02*
X108910400Y-101039600D01*
X75680000Y-56305000D02*
X75680000Y-57606700D01*
X111000000Y-65087500D02*
X111000000Y-64237500D01*
X76950000Y-81981400D02*
X77931100Y-81981400D01*
X80000000Y-65000000D02*
X79528100Y-65471900D01*
X109950000Y-100000000D02*
X110800000Y-100000000D01*
X91613400Y-90981100D02*
X89912500Y-89280200D01*
D58*
X109239500Y-67299700D02*
X107974700Y-67299700D01*
D55*
X60662500Y-136000000D02*
X61481171Y-136877369D01*
X91862500Y-87950000D02*
X93912500Y-90000000D01*
D58*
X108000000Y-96625400D02*
X106687100Y-96625400D01*
D55*
X86950000Y-68000000D02*
X86100000Y-68000000D01*
X81887400Y-89974900D02*
X81000000Y-89087500D01*
X104050000Y-62000000D02*
X103200000Y-62000000D01*
X150000000Y-124000000D02*
X150806000Y-124000000D01*
X77931100Y-81981400D02*
X78912500Y-81000000D01*
X105406900Y-85995800D02*
X107005200Y-84397500D01*
X76800000Y-56880000D02*
X76585926Y-57856817D01*
X111475000Y-56000000D02*
X114000000Y-58525000D01*
X160000000Y-123050000D02*
X160000000Y-123899999D01*
X94480000Y-109000000D02*
X96950000Y-109000000D01*
X79528100Y-65471900D02*
X79528100Y-65834300D01*
X59100000Y-134748000D02*
X58285993Y-134503269D01*
X64000000Y-133950000D02*
X65950000Y-132000000D01*
X76800000Y-56880000D02*
X76585926Y-57856817D01*
X76000000Y-61050000D02*
X76000000Y-64050000D01*
X106475000Y-100000000D02*
X107285453Y-101262206D01*
X108000000Y-96374600D02*
X107750000Y-96124600D01*
X78000000Y-99087500D02*
X78000000Y-98237500D01*
D58*
X109312900Y-96374600D02*
X109437500Y-96250000D01*
D55*
X79528100Y-65834300D02*
X79528200Y-65834300D01*
X85000000Y-63050000D02*
X85000000Y-62199999D01*
X101950000Y-85000000D02*
X102945800Y-85995800D01*
X81050000Y-74000000D02*
X80200000Y-74000000D01*
X111000000Y-69050000D02*
X110967300Y-69017300D01*
X123000000Y-66662000D02*
X111995000Y-66662000D01*
X68000000Y-62087500D02*
X68000000Y-61237500D01*
X111995000Y-67400900D02*
X111995000Y-66662000D01*
X111995000Y-66662000D02*
X111995000Y-66082500D01*
X81050000Y-74000000D02*
X78950000Y-74000000D01*
D58*
X59916600Y-134772600D02*
X59916600Y-134860200D01*
D55*
X97912500Y-78000000D02*
X101912500Y-74000000D01*
X129650000Y-76000000D02*
X130800000Y-76000000D01*
X108000000Y-96500000D02*
X108000000Y-96625400D01*
X79528200Y-65834300D02*
X80250000Y-66556200D01*
X111000000Y-60975800D02*
X105074200Y-60975800D01*
X89912500Y-89280200D02*
X89217800Y-89974900D01*
X70276700Y-53276700D02*
X70000000Y-53000000D01*
X74000000Y-81525000D02*
X74000000Y-80525000D01*
X106000000Y-82050000D02*
X106000000Y-81200000D01*
X107005200Y-84397500D02*
X107005200Y-83055200D01*
X97912500Y-78000000D02*
X97912500Y-80600800D01*
X60493700Y-135437300D02*
X60662500Y-135606100D01*
X110000000Y-56000000D02*
X111475000Y-56000000D01*
X68000000Y-62000000D02*
X68000000Y-62087500D01*
X65950000Y-132000000D02*
X66800000Y-132000000D01*
X78950000Y-74000000D02*
X79800000Y-74000000D01*
X107750000Y-96124600D02*
X107750000Y-95062500D01*
X91862500Y-85950000D02*
X91551185Y-86740938D01*
X114000000Y-58525000D02*
X114000000Y-57525000D01*
X123000000Y-64000000D02*
X123000000Y-66662000D01*
X114000000Y-58525000D02*
X111549200Y-60975800D01*
X121950000Y-122000000D02*
X123200000Y-122000000D01*
X75680000Y-53276700D02*
X70276700Y-53276700D01*
X70000000Y-53000000D02*
X71262206Y-52189546D01*
X66000000Y-60000000D02*
X68000000Y-62000000D01*
X81250000Y-63750000D02*
X81975000Y-63750000D01*
X80250000Y-66556200D02*
X80556200Y-66250000D01*
X81975000Y-63750000D02*
X82693233Y-63295422D01*
X86249700Y-79299700D02*
X86239500Y-79299700D01*
X123912500Y-76000000D02*
X125200000Y-76000000D01*
X81000000Y-89087500D02*
X81000000Y-88237500D01*
X76073300Y-57606700D02*
X75680000Y-57606700D01*
X100425000Y-81000000D02*
X98862500Y-81000000D01*
X105074200Y-60975800D02*
X104050000Y-62000000D01*
X74862500Y-90950000D02*
X75862500Y-90950000D01*
X60662500Y-135606100D02*
X60662500Y-136000000D01*
X110967300Y-68428600D02*
X111995000Y-67400900D01*
X111000000Y-60975800D02*
X111000000Y-65087500D01*
X117000000Y-111050000D02*
X117000000Y-110200000D01*
X75680000Y-52125000D02*
X75680000Y-53276700D01*
X84320000Y-56305000D02*
X84320000Y-57606700D01*
X156950000Y-129000000D02*
X156100000Y-129000000D01*
X74000000Y-59050000D02*
X76000000Y-61050000D01*
X79800000Y-74000000D02*
X80200000Y-74000000D01*
X154862500Y-125950000D02*
X154365182Y-126639329D01*
X76950000Y-81981400D02*
X76950000Y-87000000D01*
X119000000Y-106000000D02*
X120200000Y-106000000D01*
X154862500Y-125950000D02*
X156950000Y-128037500D01*
X66000000Y-60000000D02*
X67200000Y-60000000D01*
X108000000Y-96500000D02*
X108000000Y-96374600D01*
D58*
X59916600Y-134860200D02*
X60493700Y-135437300D01*
D55*
X75443300Y-57606700D02*
X74000000Y-59050000D01*
X59444400Y-134772600D02*
X59419800Y-134748000D01*
X107005200Y-83055200D02*
X106000000Y-82050000D01*
D58*
X84974700Y-79299700D02*
X84900000Y-79225000D01*
D55*
X83200000Y-56880000D02*
X83414073Y-57856817D01*
X72475000Y-80000000D02*
X74000000Y-81525000D01*
X81975000Y-65750000D02*
X82769632Y-66051759D01*
X88000000Y-77087500D02*
X88000000Y-77937500D01*
X74000000Y-59050000D02*
X74000000Y-58199999D01*
X111995000Y-66082500D02*
X111000000Y-65087500D01*
X68500000Y-80000000D02*
X72475000Y-80000000D01*
X119000000Y-106000000D02*
X117000000Y-108000000D01*
X78000000Y-99087500D02*
X74025000Y-99087500D01*
X82769632Y-66051759D02*
X82823245Y-66304590D01*
X75680000Y-57606700D02*
X75443300Y-57606700D01*
D58*
X108000000Y-96374600D02*
X109312900Y-96374600D01*
D55*
X93912500Y-90000000D02*
X92931400Y-90981100D01*
X89912500Y-89000000D02*
X89062500Y-89000000D01*
X107000000Y-90087500D02*
X106520574Y-89209917D01*
X88075300Y-80974700D02*
X88000000Y-81050000D01*
X88000000Y-81050000D02*
X86249700Y-79299700D01*
X109437500Y-96250000D02*
X110619754Y-96044390D01*
X96950000Y-109000000D02*
X99000000Y-111050000D01*
X106475000Y-100000000D02*
X107514600Y-101039600D01*
X108910400Y-101039600D02*
X109950000Y-100000000D01*
X111549200Y-60975800D02*
X111000000Y-60975800D01*
X78750000Y-66974999D02*
X77900018Y-66980548D01*
X76000000Y-64050000D02*
X76000000Y-63199999D01*
X101950000Y-85000000D02*
X102800000Y-85000000D01*
X85000000Y-63050000D02*
X83950000Y-62000000D01*
X78750000Y-66612500D02*
X78750000Y-66975000D01*
D58*
X152356800Y-125550800D02*
X154463300Y-125550800D01*
D55*
X80250000Y-66556200D02*
X80250000Y-66975000D01*
X88000000Y-81050000D02*
X88000000Y-80200000D01*
X78912500Y-81000000D02*
X79762499Y-81000000D01*
X80000000Y-65000000D02*
X81250000Y-63750000D01*
X59916600Y-134772600D02*
X59444400Y-134772600D01*
D58*
X97912500Y-80600800D02*
X98376900Y-80600800D01*
D55*
X99000000Y-111050000D02*
X99000000Y-110200000D01*
X80556200Y-66250000D02*
X81975000Y-66250000D01*
X93950000Y-82000000D02*
X94800000Y-82000000D01*
X84320000Y-57606700D02*
X83926700Y-57606700D01*
X93950000Y-82000000D02*
X92924700Y-80974700D01*
X101912500Y-72000000D02*
X102790082Y-72479425D01*
X109239500Y-67299700D02*
X110368400Y-68428600D01*
X150000000Y-124000000D02*
X151200000Y-124000000D01*
X101912500Y-74000000D02*
X101912500Y-72000000D01*
X92931400Y-90981100D02*
X91613400Y-90981100D01*
X74456400Y-81981400D02*
X76950000Y-81981400D01*
X97912500Y-78000000D02*
X98762499Y-78000000D01*
X89217800Y-89974900D02*
X81887400Y-89974900D01*
X128000000Y-67000000D02*
X123338000Y-67000000D01*
X111000000Y-69050000D02*
X111000000Y-68200000D01*
X74000000Y-81525000D02*
X74456400Y-81981400D01*
D58*
X106687100Y-96625400D02*
X106562500Y-96750000D01*
D55*
X89912500Y-89280200D02*
X89912500Y-89000000D01*
X82675000Y-63050000D02*
X85000000Y-63050000D01*
X83926700Y-57606700D02*
X83200000Y-56880000D01*
X57000000Y-127087500D02*
X57000000Y-126237500D01*
X64000000Y-134050000D02*
X64000000Y-133200000D01*
X81975000Y-66250000D02*
X85200000Y-66250000D01*
X93912500Y-90000000D02*
X94762499Y-90000000D01*
X83950000Y-61000000D02*
X84800000Y-61000000D01*
X83200000Y-56880000D02*
X83414073Y-57856817D01*
X72937500Y-98000000D02*
X73396756Y-98715250D01*
X83950000Y-62000000D02*
X83950000Y-61000000D01*
X128000000Y-67000000D02*
X128084884Y-65803006D01*
X102945800Y-85995800D02*
X105406900Y-85995800D01*
X85200000Y-66250000D02*
X86950000Y-68000000D01*
X110368400Y-68428600D02*
X110967300Y-68428600D01*
X156950000Y-128037500D02*
X156950000Y-129000000D01*
X91862500Y-85950000D02*
X91862500Y-87950000D01*
X114600000Y-122750000D02*
X115900000Y-122800000D01*
D58*
X154463300Y-125550800D02*
X154862500Y-125950000D01*
D55*
X59100000Y-134748000D02*
X59419800Y-134748000D01*
X150806000Y-124000000D02*
X152356800Y-125550800D01*
X74025000Y-99087500D02*
X72937500Y-98000000D01*
X64000000Y-134050000D02*
X64000000Y-133950000D01*
X81975000Y-63750000D02*
X82675000Y-63050000D01*
X92924700Y-80974700D02*
X88075300Y-80974700D01*
D58*
X86239500Y-79299700D02*
X84974700Y-79299700D01*
D55*
X81975000Y-66250000D02*
X82823245Y-66304590D01*
D58*
X107974700Y-67299700D02*
X107900000Y-67225000D01*
D55*
X105406900Y-85995800D02*
X105406900Y-88494400D01*
X98752300Y-80976200D02*
X98376900Y-80600800D01*
X117000000Y-108000000D02*
X117000000Y-111050000D01*
X105406900Y-88494400D02*
X107000000Y-90087500D01*
X110000000Y-56000000D02*
X111200000Y-56000000D01*
X123338000Y-67000000D02*
X123000000Y-66662000D01*
X110967300Y-69017300D02*
X110967300Y-68428600D01*
X76800000Y-56880000D02*
X76073300Y-57606700D01*
X81975000Y-65750000D02*
X81975000Y-66250000D01*
X76950000Y-87000000D02*
X77800000Y-87000000D01*
%TO.N,VBUS*%
D61*
X73950000Y-60950000D02*
X70000000Y-57000000D01*
D58*
X76976200Y-65586900D02*
X77639300Y-66250000D01*
D61*
X77639300Y-66250000D02*
X78025000Y-66250000D01*
D59*
X82400000Y-56880000D02*
X82400000Y-58080000D01*
D56*
X82400000Y-58080000D02*
X82000000Y-58680000D01*
D58*
X76976200Y-65407200D02*
X76976200Y-65586900D01*
D56*
X88425000Y-59905000D02*
X86925000Y-59905000D01*
X77600000Y-58080000D02*
X77200000Y-58680000D01*
D55*
X74000000Y-63533700D02*
X75342400Y-64876100D01*
X76445100Y-64876100D02*
X76976200Y-65407200D01*
D56*
X68378800Y-63533700D02*
X68000000Y-63912500D01*
X87719200Y-54280800D02*
X88000000Y-54000000D01*
X88425000Y-58635000D02*
X86925000Y-58635000D01*
X86774600Y-54280800D02*
X87719200Y-54280800D01*
D57*
X75342400Y-64876100D02*
X76445100Y-64876100D01*
D56*
X88425000Y-56095000D02*
X86925000Y-56095000D01*
D59*
X77600000Y-58080000D02*
X78000000Y-58680000D01*
D56*
X74000000Y-63533700D02*
X68378800Y-63533700D01*
X74000000Y-60950000D02*
X73950000Y-60950000D01*
X88425000Y-57365000D02*
X86925000Y-57365000D01*
X74000000Y-60950000D02*
X74000000Y-63533700D01*
D59*
X77600000Y-56880000D02*
X77600000Y-58080000D01*
D56*
X82400000Y-58080000D02*
X82800000Y-58680000D01*
%TO.N,CC1*%
D55*
X81250000Y-56880000D02*
X81250000Y-58440600D01*
X81250000Y-58440600D02*
X76989900Y-62700700D01*
X76989900Y-62700700D02*
X76989900Y-64078900D01*
X76989900Y-64078900D02*
X77661000Y-64750000D01*
X77661000Y-64750000D02*
X78025000Y-64750000D01*
%TO.N,CC2*%
X77341600Y-63932300D02*
X77341600Y-63511100D01*
X78796500Y-58548300D02*
X78250000Y-58001800D01*
X78250000Y-58001800D02*
X78250000Y-56880000D01*
X77659300Y-64250000D02*
X77341600Y-63932300D01*
X78025000Y-64250000D02*
X77659300Y-64250000D01*
X77341600Y-63511100D02*
X77681100Y-63171600D01*
%TO.N,PI_3V3*%
X149903600Y-122679200D02*
X149941900Y-122679200D01*
X88826500Y-84501800D02*
X91328300Y-82000000D01*
X100425000Y-81500000D02*
X101600000Y-82000000D01*
X132676600Y-57240600D02*
X131747500Y-57240600D01*
X117400000Y-121750000D02*
X116100000Y-121800000D01*
X148987100Y-124420000D02*
X148987100Y-123595700D01*
X158085600Y-124998100D02*
X157137500Y-124050000D01*
X131747500Y-57240600D02*
X128000000Y-60988100D01*
X117400000Y-121250000D02*
X118700000Y-121200000D01*
X74088500Y-87104600D02*
X74193100Y-87000000D01*
X100050000Y-85000000D02*
X99000000Y-85700000D01*
X133668300Y-58232300D02*
X132676600Y-57240600D01*
X67000000Y-128912500D02*
X67855800Y-128056700D01*
X91328300Y-82000000D02*
X92050000Y-82000000D01*
X94137500Y-84050000D02*
X94100000Y-84050000D01*
X157087500Y-124000000D02*
X157137500Y-124050000D01*
X81685700Y-84501800D02*
X88826500Y-84501800D01*
X105912500Y-76000000D02*
X107200000Y-76000000D01*
X75050000Y-87000000D02*
X77100000Y-89050000D01*
X77100000Y-89050000D02*
X77137500Y-89050000D01*
X155050000Y-129000000D02*
X156027900Y-129977900D01*
X120082700Y-69408600D02*
X115524600Y-73966700D01*
X100050000Y-84736200D02*
X100050000Y-85000000D01*
X148987100Y-123595700D02*
X149903600Y-122679200D01*
X157087500Y-121000000D02*
X157087500Y-124000000D01*
X129048600Y-64048600D02*
X129048600Y-67434800D01*
X134770000Y-58370000D02*
X133668300Y-58370000D01*
X101575000Y-81500000D02*
X102900000Y-81800000D01*
X157412100Y-129977900D02*
X158085600Y-129304400D01*
X114600000Y-121750000D02*
X116100000Y-121800000D01*
X128000000Y-63000000D02*
X129048600Y-64048600D01*
X156027900Y-129977900D02*
X157412100Y-129977900D01*
X153567100Y-129000000D02*
X148987100Y-124420000D01*
X94823700Y-84736200D02*
X94137500Y-84050000D01*
X133668300Y-58370000D02*
X133668300Y-58232300D01*
X113087500Y-73000000D02*
X113087500Y-73966700D01*
X158085600Y-129304400D02*
X158085600Y-124998100D01*
X94100000Y-84050000D02*
X92050000Y-82000000D01*
X100050000Y-84736200D02*
X94823700Y-84736200D01*
X127074800Y-69408600D02*
X120082700Y-69408600D01*
X115524600Y-73966700D02*
X113087500Y-73966700D01*
X110001900Y-76605700D02*
X112481800Y-76605700D01*
X112481800Y-76605700D02*
X113087500Y-76000000D01*
X155050000Y-129000000D02*
X153567100Y-129000000D01*
X128000000Y-60988100D02*
X128000000Y-63000000D01*
X74193100Y-87000000D02*
X75050000Y-87000000D01*
X77137500Y-89050000D02*
X81685700Y-84501800D01*
X120050000Y-122000000D02*
X120800000Y-123100000D01*
X113087500Y-73966700D02*
X113087500Y-76000000D01*
X129048600Y-67434800D02*
X127074800Y-69408600D01*
%TO.N,PI_5V*%
D56*
X103525000Y-100000000D02*
X104730400Y-98794600D01*
D55*
X108050000Y-98794600D02*
X108050000Y-98500600D01*
D56*
X104730400Y-98794600D02*
X104818400Y-98794600D01*
D61*
X108250000Y-97937500D02*
X108750000Y-97937500D01*
D56*
X116525000Y-64000000D02*
X114000000Y-61475000D01*
X125000000Y-55000000D02*
X126200000Y-55000000D01*
D55*
X96087500Y-75000000D02*
X95800000Y-76300000D01*
D57*
X107250000Y-67000000D02*
X107250000Y-69000000D01*
D55*
X108050000Y-98500600D02*
X108125400Y-98425200D01*
D62*
X108050000Y-100000000D02*
X108050000Y-98794600D01*
D56*
X107250000Y-69000000D02*
X107850000Y-69700000D01*
X107850000Y-69700000D02*
X107450000Y-70500000D01*
X107850000Y-69700000D02*
X108250000Y-70500000D01*
X107850000Y-69700000D02*
X107450000Y-69700000D01*
D59*
X107850000Y-69700000D02*
X108250000Y-71300000D01*
D56*
X119000000Y-92000000D02*
X120200000Y-92000000D01*
X102000000Y-95087500D02*
X104063100Y-95087500D01*
D61*
X108250000Y-98425200D02*
X108250000Y-97937500D01*
D56*
X104818400Y-98083300D02*
X104818400Y-98794600D01*
D57*
X104818400Y-98794600D02*
X108050000Y-98794600D01*
D62*
X107850000Y-69700000D02*
X107450000Y-71300000D01*
D56*
X107850000Y-69700000D02*
X108250000Y-69700000D01*
X118000000Y-64000000D02*
X116525000Y-64000000D01*
D58*
X108125400Y-98425200D02*
X108250000Y-98425200D01*
%TO.N,AMP_ENABLE*%
D55*
X101087500Y-92000000D02*
X102050800Y-92963300D01*
X128283100Y-79960000D02*
X132544300Y-79960000D01*
X133500000Y-78345000D02*
X134425200Y-77419800D01*
X135147700Y-77419800D02*
X135877900Y-76689600D01*
X103479200Y-92963300D02*
X103717500Y-92725000D01*
X134425200Y-77419800D02*
X135147700Y-77419800D01*
X102050800Y-92963300D02*
X103479200Y-92963300D01*
X133500000Y-79004300D02*
X133500000Y-78345000D01*
X115518100Y-92725000D02*
X128283100Y-79960000D01*
X103717500Y-92725000D02*
X115518100Y-92725000D01*
X132544300Y-79960000D02*
X133500000Y-79004300D01*
X135877900Y-72177900D02*
X134770000Y-71070000D01*
X135877900Y-76689600D02*
X135877900Y-72177900D01*
%TO.N,BCLK_PI*%
X128041600Y-70045900D02*
X127087500Y-71000000D01*
X132230000Y-71070000D02*
X131205900Y-70045900D01*
X131205900Y-70045900D02*
X128041600Y-70045900D01*
%TO.N,SERVO_FAULT_N*%
X133500000Y-74880000D02*
X134770000Y-73610000D01*
X114912500Y-76000000D02*
X116032500Y-74880000D01*
X104562000Y-75005700D02*
X105000000Y-75443700D01*
X83275000Y-79875000D02*
X83100000Y-79700000D01*
X113755100Y-77157400D02*
X114912500Y-76000000D01*
X101702600Y-75005700D02*
X104562000Y-75005700D01*
X83275000Y-80623100D02*
X83304200Y-80652300D01*
X105000000Y-75443700D02*
X105000000Y-76511300D01*
X105646100Y-77157400D02*
X113755100Y-77157400D01*
X83275000Y-79875000D02*
X83275000Y-80623100D01*
X116032500Y-74880000D02*
X133500000Y-74880000D01*
X105000000Y-76511300D02*
X105646100Y-77157400D01*
%TO.N,SERVO_REQUEST*%
X92900000Y-85300000D02*
X93200000Y-86600000D01*
X90897500Y-88810000D02*
X90897500Y-85669200D01*
X100900000Y-83900000D02*
X95200000Y-78900000D01*
X62900000Y-73600000D02*
X55600000Y-128699999D01*
X93200000Y-86600000D02*
X98100000Y-86400000D01*
X95200000Y-78900000D02*
X95200000Y-72000000D01*
X55600000Y-130600000D02*
X58900000Y-137100000D01*
X106100000Y-54900000D02*
X85400000Y-55100000D01*
X134770000Y-76150000D02*
X133504200Y-77415800D01*
X84900000Y-54900000D02*
X74800000Y-54900000D01*
X99300000Y-68000000D02*
X101400000Y-66900000D01*
X74800000Y-54900000D02*
X68800000Y-55400000D01*
X91566700Y-85000000D02*
X91862500Y-85000000D01*
X55600000Y-128699999D02*
X55600000Y-130600000D01*
X104600000Y-60400000D02*
X106100000Y-56900000D01*
X95200000Y-72000000D02*
X99300000Y-68000000D01*
X92087500Y-90000000D02*
X90897500Y-88810000D01*
X103400000Y-60900000D02*
X104600000Y-60400000D01*
X82000000Y-137300000D02*
X113300000Y-121200000D01*
X68800000Y-55400000D02*
X64900000Y-59000000D01*
X102700000Y-61400000D02*
X103400000Y-60900000D01*
X93000000Y-85836400D02*
X92163600Y-85000000D01*
X98100000Y-86400000D02*
X100900000Y-86000000D01*
X114600000Y-121250000D02*
X113300000Y-121200000D01*
X92163600Y-85000000D02*
X91862500Y-85000000D01*
X92087500Y-90000000D02*
X91000000Y-89300000D01*
X64900000Y-59000000D02*
X62900000Y-73600000D01*
X100900000Y-86000000D02*
X100900000Y-83900000D01*
X58900000Y-137100000D02*
X61800000Y-137500000D01*
X116887600Y-90858200D02*
X97753500Y-90858200D01*
X91000000Y-89300000D02*
X90900000Y-85300000D01*
X106100000Y-56900000D02*
X106100000Y-54900000D01*
X93000000Y-86104700D02*
X93000000Y-85836400D01*
X85400000Y-55100000D02*
X84900000Y-54900000D01*
X90900000Y-85300000D02*
X92900000Y-85300000D01*
X90897500Y-85669200D02*
X91566700Y-85000000D01*
X130330000Y-77415800D02*
X116887600Y-90858200D01*
X97753500Y-90858200D02*
X93000000Y-86104700D01*
X133504200Y-77415800D02*
X130330000Y-77415800D01*
X61800000Y-137500000D02*
X82000000Y-137300000D01*
X101400000Y-66900000D02*
X102700000Y-61400000D01*
%TO.N,BUTTON_N*%
X163226800Y-121773200D02*
X164000000Y-121000000D01*
X157015700Y-126071800D02*
X157137500Y-125950000D01*
X156000000Y-126071800D02*
X157015700Y-126071800D01*
X160404700Y-121773200D02*
X163226800Y-121773200D01*
%TO.N,LED_GPIO*%
X142251700Y-130852900D02*
X146940400Y-130852900D01*
X146940400Y-130852900D02*
X148000000Y-131912500D01*
%TO.N,SUPPLY_OK*%
X132229999Y-83770000D02*
X132699999Y-85000000D01*
X108000000Y-79000000D02*
X109300000Y-79000000D01*
X101575000Y-80500000D02*
X100700000Y-79600000D01*
X117400000Y-122250000D02*
X118700000Y-122200000D01*
X104087500Y-76000000D02*
X104600000Y-77200000D01*
%TO.N,JAW_PWM*%
X103866600Y-93248400D02*
X129008400Y-93248400D01*
X83467800Y-93380300D02*
X103734700Y-93380300D01*
X81000000Y-90912500D02*
X83467800Y-93380300D01*
X80087500Y-90000000D02*
X74862500Y-90000000D01*
X103734700Y-93380300D02*
X103866600Y-93248400D01*
X81000000Y-90912500D02*
X80087500Y-90000000D01*
X129008400Y-93248400D02*
X132230000Y-96470000D01*
%TO.N,LRCLK_PI*%
X133500000Y-102820000D02*
X134770000Y-101550000D01*
X128077300Y-102989800D02*
X129676200Y-102989800D01*
X129676200Y-102989800D02*
X129846000Y-102820000D01*
X127087500Y-102000000D02*
X128077300Y-102989800D01*
X129846000Y-102820000D02*
X133500000Y-102820000D01*
%TO.N,MIC_DATA_PI*%
X59825000Y-128912500D02*
X60000000Y-129087500D01*
X133917000Y-102967500D02*
X136967500Y-102967500D01*
X57000000Y-128912500D02*
X59825000Y-128912500D01*
X132230000Y-104090000D02*
X132794500Y-104090000D01*
X132230000Y-104090000D02*
X116612800Y-119707200D01*
X132794500Y-104090000D02*
X133917000Y-102967500D01*
X69380300Y-119707200D02*
X60000000Y-129087500D01*
X136967500Y-102967500D02*
X138000000Y-104000000D01*
X116612800Y-119707200D02*
X69380300Y-119707200D01*
%TO.N,AMP_DATA_PI*%
X133765200Y-108165200D02*
X132230000Y-106630000D01*
X140995000Y-109630400D02*
X139529800Y-108165200D01*
X140000000Y-111912500D02*
X140995000Y-110917500D01*
X139529800Y-108165200D02*
X133765200Y-108165200D01*
X140995000Y-110917500D02*
X140995000Y-109630400D01*
%TO.N,PD_5V*%
D56*
X77050000Y-74000000D02*
X77050000Y-72863200D01*
X83150000Y-76300000D02*
X82750000Y-76300000D01*
X106150000Y-64300000D02*
X105750000Y-63500000D01*
X77050000Y-74000000D02*
X77087500Y-74037500D01*
D57*
X102962500Y-66125000D02*
X100087500Y-69000000D01*
D59*
X97425000Y-56095000D02*
X97980600Y-56650600D01*
D56*
X106150000Y-64300000D02*
X106550000Y-64300000D01*
D61*
X79250000Y-62655300D02*
X79250000Y-63025000D01*
D60*
X104349400Y-56650600D02*
X105000000Y-56000000D01*
D57*
X83750000Y-79000000D02*
X83750000Y-77000000D01*
D56*
X83150000Y-76300000D02*
X82750000Y-75500000D01*
X106150000Y-64300000D02*
X106550000Y-62700000D01*
D59*
X97425000Y-56095000D02*
X95925000Y-56095000D01*
D56*
X77087500Y-74037500D02*
X77087500Y-78000000D01*
D55*
X103500000Y-64300000D02*
X105750000Y-64300000D01*
D56*
X83150000Y-76300000D02*
X83550000Y-74700000D01*
D61*
X78328000Y-62268400D02*
X78863100Y-62268400D01*
D57*
X106750000Y-67000000D02*
X106750000Y-65000000D01*
D56*
X83150000Y-76300000D02*
X83550000Y-76300000D01*
D55*
X97980600Y-56650600D02*
X104349400Y-56650600D01*
D59*
X97425000Y-59905000D02*
X95925000Y-59905000D01*
D56*
X83150000Y-76300000D02*
X82750000Y-74700000D01*
X106150000Y-64300000D02*
X105750000Y-64300000D01*
X106150000Y-64300000D02*
X105750000Y-62700000D01*
X83750000Y-77000000D02*
X83150000Y-76300000D01*
D55*
X102962500Y-66125000D02*
X103500000Y-64300000D01*
D59*
X97425000Y-57365000D02*
X95925000Y-57365000D01*
D55*
X117087500Y-76000000D02*
X118000000Y-76900000D01*
D56*
X83150000Y-76300000D02*
X83550000Y-75500000D01*
X106150000Y-64300000D02*
X106550000Y-63500000D01*
D59*
X97425000Y-58635000D02*
X95925000Y-58635000D01*
D55*
X78863100Y-62268400D02*
X79250000Y-62655300D01*
D56*
X106750000Y-65000000D02*
X106150000Y-64300000D01*
X77050000Y-72863200D02*
X77425700Y-72487500D01*
%TO.N,PI_OV*%
D55*
X100087500Y-70825000D02*
X101912500Y-69000000D01*
D58*
X106025300Y-66849700D02*
X106100000Y-66775000D01*
D55*
X100087500Y-72000000D02*
X100087500Y-70825000D01*
X101912500Y-69000000D02*
X101912500Y-68154300D01*
X101912500Y-68154300D02*
X103217100Y-66849700D01*
D58*
X103217100Y-66849700D02*
X106025300Y-66849700D01*
%TO.N,PI_EN_UVLO*%
D55*
X126350000Y-76000000D02*
X127600000Y-76000000D01*
X118912500Y-76000000D02*
X120200000Y-76000000D01*
X106275000Y-66125000D02*
X105000000Y-66099999D01*
X122087500Y-76000000D02*
X123000000Y-76900000D01*
%TO.N,BUTTON_RC*%
X158912500Y-121000000D02*
X158912500Y-123862500D01*
X158912500Y-123862500D02*
X160000000Y-124950000D01*
X152912500Y-121000000D02*
X152912500Y-124487000D01*
D58*
X153026300Y-124600800D02*
X154463300Y-124600800D01*
D55*
X153865200Y-120047300D02*
X157959800Y-120047300D01*
X152912500Y-121000000D02*
X153865200Y-120047300D01*
X157959800Y-120047300D02*
X158912500Y-121000000D01*
X152912500Y-124487000D02*
X153026300Y-124600800D01*
D58*
X154463300Y-124600800D02*
X154862500Y-125000000D01*
%TO.N,MIC_3V3*%
D55*
X64050000Y-132000000D02*
X64050000Y-131721200D01*
X66050000Y-135950000D02*
X64000000Y-135950000D01*
X64050000Y-132000000D02*
X62313300Y-132000000D01*
X67000000Y-127087500D02*
X66014600Y-128072900D01*
X67756600Y-129756600D02*
X70000000Y-132000000D01*
X60900000Y-133926000D02*
X60900000Y-133413300D01*
X66014600Y-129756600D02*
X67756600Y-129756600D01*
X64050000Y-131721200D02*
X66014600Y-129756600D01*
X62313300Y-132000000D02*
X60900000Y-133413300D01*
X66014600Y-128072900D02*
X66014600Y-129756600D01*
X70000000Y-132000000D02*
X66050000Y-135950000D01*
%TO.N,AMP_P*%
D56*
X105500500Y-105934300D02*
X104000000Y-107434800D01*
D61*
X109437500Y-97250000D02*
X109437500Y-97557700D01*
D56*
X104000000Y-107434800D02*
X104000000Y-107575000D01*
X109437500Y-97557700D02*
X109731800Y-97852000D01*
%TO.N,SPK_P*%
X107000000Y-116000000D02*
X107000000Y-112950000D01*
X107050000Y-110500000D02*
X107050000Y-112900000D01*
D55*
X107050000Y-106475000D02*
X104000000Y-103425000D01*
D59*
X107050000Y-110500000D02*
X107050000Y-106475000D01*
D56*
X107000000Y-112950000D02*
X99000000Y-112950000D01*
X107050000Y-112900000D02*
X107000000Y-112950000D01*
%TO.N,PI_ILM*%
D58*
X111000000Y-66849700D02*
X107974700Y-66849700D01*
D55*
X111000000Y-66912500D02*
X111000000Y-66849700D01*
D58*
X107974700Y-66849700D02*
X107900000Y-66775000D01*
%TO.N,SERVO_OV*%
X78351000Y-78349900D02*
X78562600Y-78349900D01*
D55*
X78562600Y-78349900D02*
X78912500Y-78000000D01*
D58*
X77851200Y-78849700D02*
X78351000Y-78349900D01*
D55*
X79687500Y-78775000D02*
X78912500Y-78000000D01*
X77087500Y-79613400D02*
X77851200Y-78849700D01*
X77087500Y-81000000D02*
X77087500Y-79613400D01*
X83100000Y-78775000D02*
X79687500Y-78775000D01*
%TO.N,REGEN_K*%
X70012500Y-96000000D02*
X71062500Y-97050000D01*
X67912500Y-96000000D02*
X70012500Y-96000000D01*
X65617100Y-95044100D02*
X62005000Y-98656200D01*
X66956600Y-95044100D02*
X65617100Y-95044100D01*
X62005000Y-99917500D02*
X63000000Y-100912500D01*
X67912500Y-96000000D02*
X66956600Y-95044100D01*
X62005000Y-98656200D02*
X62005000Y-99917500D01*
%TO.N,BUTTON_SWITCH*%
X150838800Y-121000000D02*
X148635400Y-123203400D01*
X161500000Y-132000000D02*
X155000000Y-132000000D01*
X151087500Y-121000000D02*
X150838800Y-121000000D01*
X148635400Y-123203400D02*
X148635400Y-125635400D01*
X148635400Y-125635400D02*
X155000000Y-132000000D01*
%TO.N,SERVO_EN*%
X83100000Y-78300000D02*
X83187500Y-78212500D01*
X93000000Y-84812500D02*
X93000000Y-83938100D01*
X83187500Y-78212500D02*
X83275000Y-78125000D01*
X88087500Y-86000000D02*
X85000000Y-86000000D01*
X92551700Y-83489800D02*
X90597700Y-83489800D01*
X84142000Y-85142000D02*
X85000000Y-86000000D01*
X90597700Y-83489800D02*
X88087500Y-86000000D01*
X93000000Y-83938100D02*
X92551700Y-83489800D01*
X83187500Y-78212500D02*
X82651300Y-77676300D01*
X94137500Y-85950000D02*
X93000000Y-84812500D01*
X88087500Y-89000000D02*
X88087500Y-86000000D01*
%TO.N,JAW_SIG*%
X71087500Y-91000000D02*
X73000000Y-89087500D01*
X64898300Y-92101700D02*
X62000000Y-95000000D01*
X70080000Y-91000000D02*
X71087500Y-91000000D01*
X70080000Y-91000000D02*
X68978300Y-92101700D01*
X68978300Y-92101700D02*
X64898300Y-92101700D01*
%TO.N,JAW_OD*%
X77912500Y-94000000D02*
X77912500Y-91725000D01*
X77912500Y-91725000D02*
X77137500Y-90950000D01*
X73626800Y-91539300D02*
X76548200Y-91539300D01*
X73000000Y-90912500D02*
X73626800Y-91539300D01*
X76548200Y-91539300D02*
X77137500Y-90950000D01*
%TO.N,DUMP*%
X64000000Y-109000000D02*
X67937500Y-105062500D01*
X67937500Y-105062500D02*
X67937500Y-100000000D01*
%TO.N,PFET_SOURCE*%
D59*
X93575000Y-58635000D02*
X95075000Y-58635000D01*
D56*
X93087500Y-60392500D02*
X93087500Y-65000000D01*
D60*
X97350000Y-66000000D02*
X94087500Y-66000000D01*
D59*
X102575000Y-57365000D02*
X104075000Y-57365000D01*
D56*
X102575000Y-58635000D02*
X104075000Y-58635000D01*
X93575000Y-59905000D02*
X93087500Y-60392500D01*
D57*
X94087500Y-66000000D02*
X93087500Y-65000000D01*
D56*
X102575000Y-59905000D02*
X104075000Y-59905000D01*
D59*
X93575000Y-57365000D02*
X95075000Y-57365000D01*
X93575000Y-59905000D02*
X95075000Y-59905000D01*
%TO.N,PFET_GATE*%
D55*
X93384400Y-56095000D02*
X92323800Y-57155600D01*
D58*
X96999300Y-66851100D02*
X97261800Y-67113600D01*
D55*
X90763600Y-66851100D02*
X96824100Y-66851100D01*
X97261800Y-67113600D02*
X97590300Y-67113600D01*
D58*
X96824100Y-66851100D02*
X96999300Y-66851100D01*
D55*
X97590300Y-67113600D02*
X98052600Y-66651300D01*
X97677700Y-65000000D02*
X94912500Y-65000000D01*
X98052600Y-66651300D02*
X98052600Y-66000000D01*
X94131600Y-55538400D02*
X93575000Y-56095000D01*
X98052600Y-66000000D02*
X98052600Y-65374900D01*
X92323800Y-57155600D02*
X92323800Y-61588700D01*
X93575000Y-56095000D02*
X93384400Y-56095000D01*
X88912500Y-65000000D02*
X90763600Y-66851100D01*
X102575000Y-56095000D02*
X102018400Y-55538400D01*
X102018400Y-55538400D02*
X94131600Y-55538400D01*
X98052600Y-65374900D02*
X97677700Y-65000000D01*
X92323800Y-61588700D02*
X88912500Y-65000000D01*
X100650000Y-66000000D02*
X98052600Y-66000000D01*
%TO.N,PD_3V3*%
X87379700Y-69028500D02*
X87876200Y-68532000D01*
X85000000Y-69078500D02*
X85050000Y-69028500D01*
X78087500Y-71000000D02*
X78148300Y-71000000D01*
X87566300Y-64044300D02*
X85905700Y-64044300D01*
X85000000Y-64950000D02*
X84379900Y-64950000D01*
X80750000Y-67670700D02*
X80750000Y-66975000D01*
X81087500Y-68060800D02*
X81087500Y-68000000D01*
X78148300Y-71000000D02*
X81087500Y-68060800D01*
D58*
X82099600Y-64374600D02*
X81975000Y-64250000D01*
D55*
X85050000Y-69028500D02*
X85050000Y-68000000D01*
X77720700Y-67670700D02*
X76000000Y-65950000D01*
X87876200Y-68532000D02*
X87876200Y-64354200D01*
X80750000Y-67670700D02*
X77720700Y-67670700D01*
X81087500Y-68000000D02*
X80758200Y-67670700D01*
X85050000Y-69028500D02*
X87379700Y-69028500D01*
X85905700Y-64044300D02*
X85000000Y-64950000D01*
X84379900Y-64950000D02*
X83804500Y-64374600D01*
X85000000Y-71000000D02*
X85000000Y-69078500D01*
X87876200Y-64354200D02*
X87566300Y-64044300D01*
D58*
X83804500Y-64374600D02*
X82099600Y-64374600D01*
D55*
X80758200Y-67670700D02*
X80750000Y-67670700D01*
X85050000Y-68000000D02*
X81087500Y-68000000D01*
%TO.N,UV_SENSE*%
X100475000Y-80500000D02*
X99200000Y-80200000D01*
X96087500Y-78000000D02*
X97000000Y-78900000D01*
X97912500Y-75000000D02*
X97000000Y-74100000D01*
%TO.N,SERVO_ARMED*%
X117400000Y-122750000D02*
X118700000Y-123000000D01*
X91862500Y-84050000D02*
X90700000Y-84500000D01*
%TO.N,AMP_DATA*%
X106562500Y-95750000D02*
X106138242Y-94956270D01*
X140000000Y-110087500D02*
X140132057Y-110900000D01*
%TO.N,AMP_GAIN*%
X102662500Y-96250000D02*
X102000000Y-96912500D01*
X106562500Y-96250000D02*
X102662500Y-96250000D01*
%TO.N,AMP_SD*%
X102912500Y-92000000D02*
X104552600Y-92000000D01*
X104552600Y-92000000D02*
X106912500Y-92000000D01*
X106562500Y-97250000D02*
X105506100Y-97250000D01*
X106912500Y-92000000D02*
X107000000Y-91912500D01*
%TO.N,AMP_N*%
D56*
X111571800Y-105934600D02*
X112000000Y-106362800D01*
X112000000Y-106362800D02*
X112000000Y-107575000D01*
D57*
X109437500Y-96750000D02*
X110303100Y-96750000D01*
%TO.N,LRCLK*%
D55*
X108250000Y-94618400D02*
X108383200Y-94485200D01*
X59100000Y-133926000D02*
X59100000Y-133413300D01*
X56005900Y-130319200D02*
X56005900Y-128455900D01*
X92006600Y-93819900D02*
X103792400Y-93819900D01*
X103792400Y-93819900D02*
X103976100Y-93636200D01*
X127951200Y-101038700D02*
X124961300Y-101038700D01*
X124961300Y-101038700D02*
X124000000Y-102000000D01*
X59100000Y-133413300D02*
X56005900Y-130319200D01*
X56005900Y-128455900D02*
X56461800Y-128000000D01*
X107534200Y-93636200D02*
X108383200Y-94485200D01*
X103976100Y-93636200D02*
X107534200Y-93636200D01*
X108383200Y-94485200D02*
X108516400Y-94352000D01*
X56461800Y-128000000D02*
X57826500Y-128000000D01*
X128912500Y-102000000D02*
X127951200Y-101038700D01*
X108516400Y-94352000D02*
X118849500Y-94352000D01*
X108250000Y-95062500D02*
X108250000Y-94618400D01*
X118849500Y-94352000D02*
X124961300Y-100463800D01*
X124961300Y-100463800D02*
X124961300Y-101038700D01*
X57826500Y-128000000D02*
X92006600Y-93819900D01*
%TO.N,SPK_N*%
D59*
X108950000Y-106475000D02*
X108950000Y-110500000D01*
D55*
X112000000Y-103425000D02*
X108950000Y-106475000D01*
D56*
X109540000Y-112950000D02*
X109540000Y-111090000D01*
X109540000Y-111090000D02*
X108950000Y-110500000D01*
X109540000Y-112950000D02*
X117000000Y-112950000D01*
X109540000Y-116000000D02*
X109540000Y-112950000D01*
%TO.N,MIC_DATA*%
D55*
X60000000Y-130912500D02*
X60000000Y-133926000D01*
%TO.N,UV_DELAY*%
X106000000Y-83950000D02*
X105300000Y-85000000D01*
X101575000Y-81000000D02*
X102900000Y-81000000D01*
%TO.N,PD_FLIP*%
X79912500Y-70596900D02*
X80578100Y-69931300D01*
X79750000Y-63025000D02*
X79750000Y-62155300D01*
X79912500Y-71000000D02*
X79912500Y-70596900D01*
%TO.N,REGEN_GATE*%
X66025000Y-99087500D02*
X66062500Y-99050000D01*
X63000000Y-99087500D02*
X66025000Y-99087500D01*
%TO.N,LED_A*%
X152040000Y-134127500D02*
X148000000Y-130087500D01*
X152040000Y-136000000D02*
X152040000Y-134127500D01*
%TO.N,PD_GATE_DRV*%
D58*
X83311300Y-65374600D02*
X82099600Y-65374600D01*
D55*
X86325100Y-65762400D02*
X83699100Y-65762400D01*
X87087500Y-65000000D02*
X86325100Y-65762400D01*
D58*
X82099600Y-65374600D02*
X81975000Y-65250000D01*
D55*
X83699100Y-65762400D02*
X83311300Y-65374600D01*
%TO.N,SERVO_ILM*%
X89150300Y-78849700D02*
X88000000Y-78849700D01*
X88000000Y-78912500D02*
X88000000Y-78849700D01*
D58*
X84900000Y-78775000D02*
X87925300Y-78775000D01*
X87925300Y-78775000D02*
X88000000Y-78849700D01*
D55*
X92000000Y-76000000D02*
X89150300Y-78849700D01*
%TO.N,PD_1V8*%
X82050000Y-61000000D02*
X81398200Y-60348200D01*
X81398200Y-60348200D02*
X81083700Y-60348200D01*
X81250000Y-66975000D02*
X83597600Y-66975000D01*
X76958300Y-68000000D02*
X72000000Y-68000000D01*
X78663200Y-69704900D02*
X76958300Y-68000000D01*
%TO.N,PI_DVDT*%
X107925000Y-67875000D02*
X107725000Y-67875000D01*
X107725000Y-67875000D02*
X107900000Y-67700000D01*
X111000000Y-70950000D02*
X107925000Y-67875000D01*
%TO.N,SERVO_DVDT*%
X84925000Y-79875000D02*
X84725000Y-79875000D01*
X88000000Y-82950000D02*
X84925000Y-79875000D01*
X84725000Y-79875000D02*
X84900000Y-79700000D01*
%TO.N,PD_FAULT*%
X80250000Y-63025000D02*
X80353100Y-62921900D01*
X76160000Y-70840000D02*
X75000000Y-72000000D01*
X80353100Y-62921900D02*
X80353100Y-61651100D01*
X77099400Y-70840000D02*
X76160000Y-70840000D01*
%TD*%
%TA.AperFunction,Conductor*%
%TO.N,SERVO_5V*%
G36*
X84416808Y-80406303D02*
G01*
X85266829Y-80725061D01*
X85302071Y-80747753D01*
X85971004Y-81416686D01*
X85998781Y-81471203D01*
X86000000Y-81486690D01*
X86000000Y-83501000D01*
X85981093Y-83559191D01*
X85931593Y-83595155D01*
X85901000Y-83600000D01*
X83899000Y-83600000D01*
X83840809Y-83581093D01*
X83804845Y-83531593D01*
X83800000Y-83501000D01*
X83800000Y-81023370D01*
X83810452Y-80979096D01*
X84072637Y-80454726D01*
X84115572Y-80411134D01*
X84161185Y-80400000D01*
X84382047Y-80400000D01*
X84416808Y-80406303D01*
G37*
%TD.AperFunction*%
%TD*%
%TA.AperFunction,Conductor*%
%TO.N,PD_5V*%
G36*
X84259191Y-74318907D02*
G01*
X84295155Y-74368407D01*
X84300000Y-74399000D01*
X84300000Y-76970025D01*
X84283373Y-77024940D01*
X83929390Y-77555915D01*
X83881380Y-77593845D01*
X83847017Y-77600000D01*
X83621744Y-77600000D01*
X83580257Y-77590888D01*
X83141725Y-77388488D01*
X83097476Y-77348101D01*
X83091809Y-77338285D01*
X82989315Y-77235791D01*
X82989312Y-77235789D01*
X82989310Y-77235787D01*
X82863788Y-77163317D01*
X82863789Y-77163317D01*
X82834196Y-77155387D01*
X82723775Y-77125800D01*
X82594313Y-77125800D01*
X82552826Y-77116688D01*
X82357513Y-77026544D01*
X82312602Y-76984992D01*
X82300000Y-76936656D01*
X82300000Y-74399000D01*
X82318907Y-74340809D01*
X82368407Y-74304845D01*
X82399000Y-74300000D01*
X84201000Y-74300000D01*
X84259191Y-74318907D01*
G37*
%TD.AperFunction*%
%TD*%
%TA.AperFunction,Conductor*%
%TO.N,PD_5V*%
G36*
X107259191Y-62318907D02*
G01*
X107295155Y-62368407D01*
X107300000Y-62399000D01*
X107300000Y-64970025D01*
X107283373Y-65024940D01*
X106929390Y-65555914D01*
X106881380Y-65593844D01*
X106847017Y-65599999D01*
X106621744Y-65599999D01*
X106580257Y-65590887D01*
X105357513Y-65026544D01*
X105312602Y-64984992D01*
X105300000Y-64936656D01*
X105300000Y-62399000D01*
X105318907Y-62340809D01*
X105368407Y-62304845D01*
X105399000Y-62300000D01*
X107201000Y-62300000D01*
X107259191Y-62318907D01*
G37*
%TD.AperFunction*%
%TD*%
%TA.AperFunction,Conductor*%
%TO.N,PI_5V*%
G36*
X107416808Y-68406303D02*
G01*
X108266829Y-68725061D01*
X108302071Y-68747753D01*
X108971004Y-69416686D01*
X108998781Y-69471203D01*
X109000000Y-69486690D01*
X109000000Y-71433200D01*
X108981093Y-71491391D01*
X108931593Y-71527355D01*
X108901000Y-71532200D01*
X107438290Y-71532200D01*
X107380099Y-71513293D01*
X107368286Y-71503204D01*
X106828996Y-70963914D01*
X106801219Y-70909397D01*
X106800000Y-70893910D01*
X106800000Y-69023370D01*
X106810452Y-68979096D01*
X107072637Y-68454726D01*
X107115572Y-68411134D01*
X107161185Y-68400000D01*
X107382047Y-68400000D01*
X107416808Y-68406303D01*
G37*
%TD.AperFunction*%
%TD*%
M02*
